<?xml version="1.0" standalone="no"?>
<!DOCTYPE svg PUBLIC "-//W3C//DTD SVG 1.1//EN" "http://www.w3.org/Graphics/SVG/1.1/DTD/svg11.dtd" >
<!--
2013-9-30: Created.
-->
<svg>
<metadata>
Created by iconfont
</metadata>
<defs>

<font id="iconfont" horiz-adv-x="1024" >
  <font-face
    font-family="iconfont"
    font-weight="500"
    font-stretch="normal"
    units-per-em="1024"
    ascent="896"
    descent="-128"
  />
    <missing-glyph />
    
    <glyph glyph-name="cuowu" unicode="&#58974;" d="M512 896a512 512 0 0 1-512-512 512 512 0 0 1 512-512 512 512 0 0 1 512 512 512 512 0 0 1-512 512zM513.755429 330.459429L359.277714 175.981714a39.058286 39.058286 0 0 0-55.296 0.073143 39.277714 39.277714 0 0 0 0.073143 55.442286l154.331429 154.331428-155.062857 155.136a36.571429 36.571429 0 0 0 51.712 51.785143l365.714285-365.714285a36.571429 36.571429 0 1 0-51.785143-51.785143L513.755429 330.459429z m157.549714 262.582857a35.254857 35.254857 0 1 0 49.737143-49.737143l-106.057143-108.982857a35.254857 35.254857 0 1 0-49.883429 49.810285l106.203429 108.982858z"  horiz-adv-x="1024" />

    
    <glyph glyph-name="iconfront-" unicode="&#58975;" d="M251 649.7c9.5 9.5 25.1 9.5 34.6 0L775.3 160c9.5-9.5 9.5-25.1 0-34.6s-25.1-9.5-34.6 0L251 615.1c-9.6 9.5-9.6 25.1 0 34.6zM774.9 649.7c-9.5 9.5-25.1 9.5-34.6 0L250.6 160c-9.5-9.5-9.5-25.1 0-34.6s25.1-9.5 34.6 0l489.7 489.7c9.5 9.5 9.5 25.1 0 34.6z"  horiz-adv-x="1024" />

    
    <glyph glyph-name="success" unicode="&#58976;" d="M512.03 831c247.26 0 447.71-200.44 447.71-447.71S759.29-64.41999999999996 512.03-64.41999999999996 64.32 136.02999999999997 64.32 383.28999999999996 264.77 831 512.03 831z m207.91-275.51L424.07 267.22 304.12 384.09c-13.25 12.91-34.73 12.91-47.98 0s-13.25-33.84 0-46.75L400.08 197.10000000000002c13.25-12.91 34.73-12.91 47.98 0l319.86 311.64c13.25 12.91 13.25 33.84 0 46.75-13.25 12.91-34.73 12.91-47.98 0z"  horiz-adv-x="1024" />

    
    <glyph glyph-name="guihualeixing" unicode="&#59056;" d="M894.464 16.384H117.76c-8.704 0-13.312 4.608-13.312 13.312v44.544c0 8.704 4.608 13.312 13.312 13.312h780.8c8.704 0 13.312-4.608 13.312-13.312v-44.544c-4.096-8.704-8.704-13.312-17.408-13.312zM952.32 864.256H59.904C33.28 864.256 15.36 846.336 15.36 819.712v-624.64c0-26.624 17.92-44.544 44.544-44.544H952.32c26.624 0 44.544 17.92 44.544 44.544v624.64c0 26.624-17.92 44.544-44.544 44.544z m-89.088-513.024h-312.32c-8.704 0-13.312 4.608-17.92 8.704L327.68 645.632l-160.768-281.088c-4.608-8.704-13.312-13.312-17.92-13.312s-8.704 0-8.704 4.608c-8.704 4.608-13.312 17.92-8.704 31.232l178.688 312.32c4.608 4.608 8.704 8.704 17.92 13.312 8.704 0 13.312-4.608 17.92-8.704l218.624-303.616h299.008c13.312 0 22.528-8.704 22.528-22.528-1.024-13.312-9.728-26.624-23.04-26.624z"  horiz-adv-x="1024" />

    
    <glyph glyph-name="xuqiuguihua" unicode="&#59004;" d="M51.197178 384A460.8 460.8 0 1 0 972.802822 384 460.8 460.8 0 0 0 51.197178 384zM421.490332 293.490332a34.1504 34.1504 0 0 1 48.295959 0l118.097015 118.097015L677.451673 404.636204 837.834805 565.019336l-126.713535 18.101934-18.101934 126.713535-160.346928-160.346928 6.914939-89.604571L421.490332 341.786291A34.1504 34.1504 0 0 1 421.490332 293.490332zM258.57293 130.57293a358.4 358.4 0 0 1 595.336392 361.169779l-4.272057 12.671353L765.42707 420.203867a256 256 0 1 0-229.532518 218.671358l12.273111-1.411951 84.210195 84.210195A358.4 358.4 0 0 1 258.57293 130.57293z"  horiz-adv-x="1024" />

    
    <glyph glyph-name="quanping" unicode="&#59127;" d="M628.053333 267.946667a32 32 0 0 0 45.226667 0l158.72-158.634667V202.666667l0.298667 4.352A32 32 0 0 0 896 202.666667v-181.333334l-0.341333-3.84a21.333333 21.333333 0 0 0-20.992-17.493333h-181.333334l-4.352 0.298667a32 32 0 0 0-27.648 31.701333l0.298667 4.352a32 32 0 0 0 31.701333 27.648h93.44l-158.72 158.72-3.114666 3.584a32 32 0 0 0 3.114666 41.642667z m-232.106666 0a32 32 0 0 0 3.114666-41.642667l-3.114666-3.584-158.72-158.72h93.44a32 32 0 0 0 31.701333-27.648l0.298667-4.352a32 32 0 0 0-27.648-31.701333L330.666667 0H149.333333a21.333333 21.333333 0 0 0-20.992 17.493333L128 21.333333v181.333334a32 32 0 0 0 63.701333 4.352l0.298667-4.352v-93.354667l158.72 158.634667a32 32 0 0 0 45.226667 0zM874.666667 768a21.333333 21.333333 0 0 0 20.992-17.493333L896 746.666667v-181.333334a32 32 0 0 0-63.701333-4.352L832 565.333333V658.688L673.28 500.053333a32 32 0 0 0-48.341333 41.642667l3.114666 3.584 158.72 158.72h-93.44a32 32 0 0 0-31.701333 27.648L661.333333 736a32 32 0 0 0 27.648 31.701333L693.333333 768h181.333334zM330.666667 768l4.352-0.298667a32 32 0 0 0 27.648-31.701333l-0.298667-4.352a32 32 0 0 0-31.701333-27.648H237.226667l158.72-158.72 3.114666-3.584a32 32 0 0 0-48.341333-41.642667L192 658.688V565.333333l-0.298667-4.352A32 32 0 0 0 128 565.333333V746.666667l0.341333 3.84A21.333333 21.333333 0 0 0 149.333333 768h181.333334z"  horiz-adv-x="1024" />

    
    <glyph glyph-name="guihua" unicode="&#58973;" d="M837.018 567.706V695.194c0 57.958-46.388 106.598-106.599 106.598H199.782c-57.958 0-106.598-46.387-106.598-106.598v-391.578c0-53.248 41.677-97.28 92.672-104.243v-129.741c0-57.958 46.387-104.243 104.243-104.243h535.245c57.958 0 104.243 46.387 104.243 104.243v393.83c0.103 55.604-41.574 97.28-92.57 104.244zM188.21 463.462v-220.16c-25.497 6.964-46.387 30.106-46.387 57.959V695.194c0 32.46 25.498 60.21 60.211 60.21h530.637c32.46 0 60.211-25.497 60.211-60.21V570.06H290.202c-55.706-2.355-101.99-48.64-101.99-106.599zM883.405 69.53c0-32.461-25.498-57.959-57.959-57.959H290.202c-32.461 0-57.959 25.498-57.959 57.959V463.462c0 32.461 25.498 57.959 57.959 57.959h535.244c32.461 0 57.959-25.498 57.959-57.959V69.53z m0 0M628.531 301.26H837.12v-46.386H628.531V301.26z m69.427 115.815h139.06v-46.387h-139.06v46.387z m-69.427-231.731H837.12v-46.387H628.531v46.387zM393.011 391.475c-4.505-4.505-4.505-11.776 0-16.179 4.506-4.506 11.674-4.506 16.18 0s4.505 11.776 0 16.18c-4.506 4.402-11.777 4.402-16.18 0z m50.176-197.632c4.506 4.506 4.506 11.674 0 16.18-4.198 4.198-10.957 4.403-15.462 0.614l-0.615-0.615c-0.204-0.204-0.512-0.41-0.716-0.614-3.892-4.506-3.687-11.264 0.614-15.565 4.403-4.505 11.674-4.505 16.18 0z m0 0M419.738 438.784c-80.692 0-146.125-65.434-146.125-146.125s65.433-146.125 146.125-146.125c80.69 0 146.124 65.434 146.124 146.125 0.103 80.691-65.433 146.125-146.124 146.125z m84.377-195.482c-6.246-6.246-14.438-9.625-23.245-9.625s-16.998 3.481-23.244 9.625l-42.292 42.292-14.028 14.028-29.082 29.082c-7.475 7.475-19.66 7.475-27.136 0-7.475-7.475-7.475-19.66 0-27.136l77.722-77.722c9.523 5.325 21.81 3.892 30.003-4.198 9.83-9.83 9.83-25.702 0-35.533-9.83-9.83-25.703-9.83-35.533 0-8.192 8.192-9.523 20.583-4.096 30.106l-77.722 77.721c-6.246 6.247-9.625 14.439-9.625 23.245s3.379 16.999 9.625 23.245c6.247 6.246 14.439 9.626 23.245 9.626s16.999-3.482 23.245-9.626l29.082-29.082 14.028-14.028 42.292-42.292c7.475-7.475 19.66-7.475 27.136 0 7.475 7.476 7.475 19.661 0 27.136l-81.204 81.204c-9.523-5.223-21.81-3.892-29.9 4.198-9.83 9.83-9.83 25.702 0 35.533 9.83 9.83 25.702 9.83 35.532 0 8.192-8.192 9.524-20.583 4.096-30.208l81.101-81.101c6.247-6.246 9.626-14.438 9.626-23.245 0-8.704-3.38-16.998-9.626-23.245z m0 0"  horiz-adv-x="1024" />

    
    <glyph glyph-name="rizhi" unicode="&#58971;" d="M930.668758 822.412549H744.725752v23.257516c0 25.717124-20.848105 46.548497-46.548497 46.548497s-46.548497-20.831373-46.548497-46.548497v-23.257516h-279.257516v23.257516c0 25.717124-20.831373 46.548497-46.548497 46.548497-25.700392 0-46.531765-20.831373-46.531765-46.548497v-23.257516H92.678693C41.562353 822.412549 0 778.741961 0 725.082353v-90.219085h1024v90.219085c0 53.659608-41.830065 97.330196-93.331242 97.330196m-232.491503-426.666667c25.700392 0 46.548497-20.831373 46.548497-46.548496 0-25.700392-20.848105-46.531765-46.548497-46.531765H325.822745c-25.700392 0-46.531765 20.831373-46.531765 46.531765 0 25.717124 20.831373 46.548497 46.531765 46.548496h372.35451zM279.274248 116.471634c0 25.717124 20.831373 46.548497 46.531765 46.548497h372.371242c25.700392 0 46.548497-20.831373 46.548497-46.548497 0-25.700392-20.848105-46.548497-46.548497-46.548497H325.822745c-25.717124 0-46.548497 20.848105-46.548497 46.548497z m698.193987 425.294641H0v-571.850458c0-53.626144 41.612549-97.28 92.712157-97.28h838.558954c51.099608 0 92.712157 43.653856 92.712157 97.28V541.766275h-46.515033z"  horiz-adv-x="1024" />

    
    <glyph glyph-name="rili" unicode="&#58972;" d="M505.6-89.14H105.626c-35.226 0-64 11.111-86.426 37.018-9.626 11.11-12.8 25.908-12.8 40.756V692.326c0 40.756 38.4 74.087 83.2 77.773h83.2c12.8 0 19.2 3.687 19.2 14.797V814.541c6.4 29.645 25.6 44.441 57.6 44.441 25.6 0 44.8-18.534 48.026-48.128v-3.686c3.174-40.755 3.174-40.755 44.8-40.755H691.2c15.974 0 22.426 3.686 22.426 18.534V810.854C716.8 840.5 739.226 855.296 768 855.296s48.026-18.534 51.2-44.442c0-14.796-6.4-33.33 3.174-40.755 12.8-7.424 32-3.686 48.026-3.686h48.026c48.025-3.687 86.425-37.018 86.425-81.46v-696.268c0-48.128-41.574-81.46-99.225-85.197-128 7.373-265.626 7.373-400.026 7.373z m3.226 633.294H108.8c-15.974 0-22.426-3.687-22.426-18.535v-511.078c0-22.221 9.626-25.907 28.775-25.907h787.2c28.774 0 28.774 0 28.774 25.907V521.933c0 18.534-3.174 22.22-22.425 22.22H508.826zM259.226 96.922h-51.2c-22.426 0-32 10.956-35.226 29.184V188.16c0 18.278 12.8 29.184 32 29.184h108.8c22.426 0 32-10.957 32-32.87v-58.42c0-18.278-9.626-29.184-32-29.184h-54.374z m249.6 0h-51.2c-22.375 0-35.226 10.956-35.226 29.184v58.419c0 21.913 9.626 29.184 32 32.87h105.574c19.2 0 32-10.957 32-29.184v-62.054c0-18.279-12.8-29.184-32-29.184h-51.148v-0.051z m249.548 120.473H812.8c19.2 0 32-10.957 28.774-29.184v-65.74c0-18.279-12.8-29.185-32-29.185h-108.8c-19.2 0-32 10.957-32 29.184v62.055c0 18.278 12.8 29.184 32 29.184 19.252 7.373 38.452 3.686 57.6 3.686zM508.826 305.05H454.4c-22.426 0-32 7.321-32 29.184v65.74c0 18.279 9.626 25.55 28.774 25.55H563.2c19.2 0 28.774-10.958 32-29.185v-62.054c0-18.279-9.626-29.184-32-29.184 0-0.051-54.426-0.051-54.374-0.051z m-249.6 120.473H313.6c19.2 0 32-10.957 32-25.549v-65.74c0-18.279-9.626-25.55-28.774-25.55H204.8c-19.2 0-28.774 7.322-28.774 25.55V403.61c0 18.278 12.8 25.548 32 25.548 15.974-3.635 32-3.635 51.2-3.635zM755.2 305.05h-54.374c-19.2 0-32 10.956-32 29.184v65.74c0 18.279 9.625 25.55 28.774 25.55h112.026c19.2 0 28.774-10.958 28.774-25.55v-65.74c0-14.592-9.626-25.55-28.774-25.55-16.026-3.634-35.226-3.634-54.426-3.634z"  horiz-adv-x="1024" />

    
    <glyph glyph-name="liucheng" unicode="&#58967;" d="M513.8 582.7c69.1 0 125.1 56 125.1 125.1S582.9 833 513.8 833s-125.1-56-125.1-125.1 56-125.2 125.1-125.2z m0 186.3c33.7 0 61.1-27.4 61.1-61.1s-27.4-61.1-61.1-61.1-61.1 27.4-61.1 61.1 27.4 61.1 61.1 61.1zM298.1 212.9c-23.2 40.1-65.2 62.6-108.5 62.6-21.2 0-42.7-5.4-62.5-16.8-59.9-34.6-80.4-111.1-45.8-170.9 23.2-40.1 65.2-62.6 108.5-62.6 21.2 0 42.7 5.4 62.5 16.8 59.8 34.5 80.3 111 45.8 170.9z m-77.8-115.5c-9.4-5.4-19.7-8.2-30.5-8.2-10.6 0-21.1 2.8-30.3 8-9.4 5.3-17.3 13.1-22.8 22.6-16.9 29.2-6.8 66.7 22.4 83.5 9.4 5.4 19.7 8.2 30.5 8.2 10.6 0 21.1-2.8 30.3-8 9.4-5.3 17.3-13.1 22.8-22.6 16.8-29.2 6.8-66.7-22.4-83.5z m676.9 159.4c-19.7 11.4-41.2 16.8-62.5 16.8-43.2 0-85.3-22.4-108.5-62.6-34.6-59.9-14-136.4 45.8-170.9 19.7-11.4 41.2-16.8 62.5-16.8 43.2 0 85.3 22.4 108.5 62.6 34.5 59.8 14 136.3-45.8 170.9z m-9.6-139c-5.5-9.5-13.3-17.3-22.8-22.6-9.2-5.2-19.7-8-30.3-8-10.8 0-21 2.8-30.5 8.2-29.2 16.9-39.2 54.3-22.4 83.5 5.5 9.5 13.3 17.3 22.8 22.6 9.2 5.2 19.7 8 30.3 8 10.8 0 21-2.8 30.4-8.2 29.3-16.8 39.3-54.3 22.5-83.5zM670.2 643c113.1-59 183.4-174.9 183.4-302.4 0-7.4-0.2-15-0.7-22.4-1.1-17.6 12.2-32.9 29.9-34 0.7 0 1.4-0.1 2.1-0.1 16.7 0 30.8 13 31.9 29.9 0.6 8.8 0.9 17.8 0.9 26.6 0 75.4-20.9 149-60.4 212.8-38.4 62-92.8 112.6-157.4 146.3-15.7 8.2-35 2.1-43.2-13.6-8.3-15.6-2.2-35 13.5-43.1zM140.4 286.2c0.6 0 1.3 0 1.9 0.1 17.6 1 31.1 16.2 30.1 33.8-0.4 6.8-0.6 13.7-0.6 20.4 0 128.4 71 244.6 185.3 303.4 15.7 8.1 21.9 27.4 13.8 43.1-8.1 15.7-27.4 21.9-43.1 13.8-65.2-33.5-120.1-84.1-159-146.4-39.9-64.1-61-138-61-213.9 0-8 0.2-16.1 0.7-24.2 1-16.9 15.1-30.1 31.9-30.1z m553.5-234.5c-54.2-34.1-116.8-52.1-181.2-52.1-65 0-128.3 18.4-182.9 53.1-14.9 9.5-34.7 5.1-44.2-9.8s-5.1-34.7 9.8-44.2c64.9-41.3 140-63.2 217.3-63.2 76.4 0 150.8 21.4 215.2 61.9 15 9.4 19.5 29.2 10.1 44.1-9.4 15.1-29.2 19.6-44.1 10.2z"  horiz-adv-x="1024" />

    
    <glyph glyph-name="xuanzhongdefuben2" unicode="&#58968;" d="M888.021333 103.978667H200.021333V727.978667A8.021333 8.021333 0 0 1 192 736H135.978667A8.021333 8.021333 0 0 1 128 727.978667v-688c0-4.394667 3.584-7.978667 8.021333-7.978667h752a8.021333 8.021333 0 0 1 7.978667 8.021333V96a8.021333 8.021333 0 0 1-8.021333 8.021333zM288 183.978667h56.021333a8.021333 8.021333 0 0 1 7.978667 8.021333v144a8.021333 8.021333 0 0 1-8.021333 8.021333H288a8.021333 8.021333 0 0 1-8.021333-8.021333V192c0-4.394667 3.626667-8.021333 8.021333-8.021333z m152.021333 0h55.978667a8.021333 8.021333 0 0 1 8.021333 8.021333V512a8.021333 8.021333 0 0 1-8.021333 8.021333h-56.021333a8.021333 8.021333 0 0 1-7.978667-8.021333v-320c0-4.394667 3.584-8.021333 8.021333-8.021333z m151.978667 0h56.021333a8.021333 8.021333 0 0 1 7.978667 8.021333v242.005333a8.021333 8.021333 0 0 1-8.021333 7.978667h-55.978667a8.021333 8.021333 0 0 1-8.021333-7.978667V192c0-4.394667 3.626667-8.021333 8.021333-8.021333z m152.021333 0h55.978667a8.021333 8.021333 0 0 1 8.021333 8.021333V592a8.021333 8.021333 0 0 1-8.021333 8.021333h-56.021333a8.021333 8.021333 0 0 1-7.978667-8.021333V192c0-4.394667 3.584-8.021333 8.021333-8.021333z"  horiz-adv-x="1024" />

    
    <glyph glyph-name="xiugaimima" unicode="&#58964;" d="M506.24-57.6H149.12A83.2 83.2 0 0 0 64 25.6V452.48a83.2 83.2 0 0 0 83.2 82.56h576a82.56 82.56 0 0 0 82.56-82.56v-96a32 32 0 0 0-32-32 32.64 32.64 0 0 0-32 32v96a18.56 18.56 0 0 1-18.56 18.56h-576a18.56 18.56 0 0 1-19.2-18.56v-426.88a18.56 18.56 0 0 1 19.2-19.2h359.04a32 32 0 1 0 0-64zM640 476.8a32.64 32.64 0 0 0-32 32V648.32a172.8 172.8 0 0 1-345.6 0v-139.52a32.64 32.64 0 0 0-32-32 32 32 0 0 0-32 32V648.32a236.8 236.8 0 0 0 473.6 0v-139.52a32 32 0 0 0-32-32zM435.84 273.92m-82.56 0a82.56 82.56 0 1 1 165.12 0 82.56 82.56 0 1 1-165.12 0ZM435.84 92.8a32 32 0 0 0-32 32v103.04a32 32 0 0 0 32 32 32 32 0 0 0 32-32v-103.04a32 32 0 0 0-32-32zM704-120.96h-8.96a230.4 230.4 0 0 0-85.76 47.36 31.36 31.36 0 0 0-10.88 24.96 30.08 30.08 0 0 0 12.16 24.32 26.24 26.24 0 0 1 10.88 19.84 24.32 24.32 0 0 1-37.12 22.4 32 32 0 0 0-27.52 0 32.64 32.64 0 0 0-17.28 20.48 211.2 211.2 0 0 0-8.96 60.16 259.84 259.84 0 0 0 7.04 55.68 33.28 33.28 0 0 0 41.6 22.4 25.6 25.6 0 0 1 34.56 23.68 26.88 26.88 0 0 1-8.96 18.56 30.08 30.08 0 0 0-10.88 23.68 33.28 33.28 0 0 0 10.24 23.68A232.96 232.96 0 0 0 696.32 320a31.36 31.36 0 0 0 39.04-21.12 24.96 24.96 0 0 1 47.36 0 32.64 32.64 0 0 0 39.68 21.12 234.88 234.88 0 0 0 91.52-51.2 33.28 33.28 0 0 0 10.24-23.68 34.56 34.56 0 0 0-10.88-23.68 26.88 26.88 0 0 1-8.96-18.56 25.6 25.6 0 0 1 25.6-26.24 19.2 19.2 0 0 1 8.32 0 35.2 35.2 0 0 0 25.6 0 32 32 0 0 0 16-20.48 227.2 227.2 0 0 0 7.68-55.68 237.44 237.44 0 0 0-7.68-56.96 33.28 33.28 0 0 0-16-19.84 32.64 32.64 0 0 0-25.6 0 24.96 24.96 0 0 1-33.92-23.04 24.32 24.32 0 0 1 8.32-18.56 31.36 31.36 0 0 0 10.24-23.68 33.28 33.28 0 0 0-10.24-23.68 225.28 225.28 0 0 0-87.68-49.92 31.36 31.36 0 0 0-26.24 3.84 30.72 30.72 0 0 0-14.72 21.76 24.96 24.96 0 0 1-24.32 21.76 25.6 25.6 0 0 1-24.32-21.76 32.64 32.64 0 0 0-14.08-22.4 33.92 33.92 0 0 0-17.28-8.96z m-28.16 78.72l10.24-5.12a87.68 87.68 0 0 0 146.56 0 109.44 109.44 0 0 1 14.72 8.32 90.88 90.88 0 0 0-7.04 35.2 89.6 89.6 0 0 0 82.56 88.96 94.72 94.72 0 0 1 0 13.44 81.92 81.92 0 0 1 0 12.16 90.24 90.24 0 0 0-82.56 89.6 88.32 88.32 0 0 0 7.68 35.84 196.48 196.48 0 0 1-19.84 10.88 93.44 93.44 0 0 0-138.24 0l-20.48-10.88a88.96 88.96 0 0 0 8.32-35.84 90.24 90.24 0 0 0-82.56-89.6 81.92 81.92 0 0 1 0-12.16 85.76 85.76 0 0 1 0-12.8 90.88 90.88 0 0 0 90.24-89.6 81.92 81.92 0 0 0-9.6-38.4zM759.04 16.64a82.56 82.56 0 1 0 82.56 82.56 82.56 82.56 0 0 0-82.56-82.56z m0 101.12a18.56 18.56 0 1 1 18.56-18.56 18.56 18.56 0 0 1-18.56 18.56z"  horiz-adv-x="1024" />

    
    <glyph glyph-name="tuichu" unicode="&#58966;" d="M563.2-90.763636H93.090909c-51.2 0-93.090909 41.890909-93.090909 93.090909V765.672727c0 51.2 41.890909 93.090909 93.090909 93.090909h470.109091c27.927273 0 46.545455-18.618182 46.545455-46.545454s-18.618182-46.545455-46.545455-46.545455H93.090909v-768h470.109091c27.927273 0 46.545455-18.618182 46.545455-46.545454 0-23.272727-18.618182-41.890909-46.545455-41.890909zM730.763636 137.309091c-18.618182 18.618182-18.618182 46.545455 0 65.163636l176.872728 176.872728L698.181818 598.109091l32.581818 32.581818c18.618182 18.618182 46.545455 18.618182 65.163637 0l214.109091-214.109091c18.618182-18.618182 18.618182-46.545455 0-65.163636l-214.109091-214.109091c-13.963636-18.618182-46.545455-18.618182-65.163637 0zM935.563636 337.454545H404.945455c-27.927273 0-46.545455 18.618182-46.545455 46.545455s18.618182 46.545455 46.545455 46.545455h530.618181v-93.09091z"  horiz-adv-x="1024" />

    
    <glyph glyph-name="shenhetongguo" unicode="&#58962;" d="M393.6 128l105.6 105.6L605.6 128l46.4 46.4L545.6 280l105.6 105.6-45.6 46.4-105.6-106.4L393.6 432l-46.4-46.4L453.6 280 348 173.60000000000002l45.6-45.6z m420.8 608h-43.2V822.4H684V736H336.8V822.4H250.4V736h-43.2c-48 0-86.4-39.2-86.4-87.2l-0.8-608c0-48 38.4-87.2 87.2-87.2h608c48 0 87.2 39.2 87.2 87.2v608c-0.8 48-40 87.2-88 87.2z m0-695.2h-608V518.4h608v-477.6z"  horiz-adv-x="1024" />

    
    <glyph glyph-name="shenhebutongguo" unicode="&#58963;" d="M709.6 381.6l-46.4 46.4-212.8-213.6-92.8 92.8-45.6-46.4 139.2-139.2c-0.8 0.8 258.4 260 258.4 260z m108 351.2h-44v88H686.4v-87.2H337.6V820.8H250.4v-87.2h-44c-48.8 0-87.2-39.2-87.2-87.2l-0.8-611.2c0-48 39.2-87.2 87.2-87.2h611.2c48 0 87.2 39.2 87.2 87.2V645.6c0.8 48-38.4 87.2-86.4 87.2z m0-697.6H206.4v480h611.2v-480z"  horiz-adv-x="1024" />

    
    <glyph glyph-name="wen" unicode="&#58961;" d="M986.511515 462.920404L795.429495 31.534545c-9.761616-21.747071-29.090909-36.20202-50.915556-38.063838H132.130909c-8.429899-0.801616-16.510707 3.969293-20.622222 12.192323-4.111515 8.210101-3.503838 18.346667 1.551515 25.871515l191.069091 431.385859c9.761616 21.734141 29.090909 36.20202 50.915555 38.063838h612.39596c8.429899 0.788687 16.510707-3.982222 20.622222-12.192323 4.111515-8.210101 3.503838-18.333737-1.551515-25.871515z m-153.457778 114.191515H263.285657L32.833939 44.218182V754.734545C32.833939 782.765253 53.30101 805.494949 78.551919 805.494949h297.218586c25.250909 0 45.730909-22.716768 45.730909-50.747474v-50.747475h411.539394c25.250909 0 45.71798-22.729697 45.71798-50.747475v-25.380202c0-13.459394-4.809697-26.362828-13.394748-35.878788-8.559192-9.541818-20.195556-14.881616-32.310303-14.881616z m0 0"  horiz-adv-x="1024" />

    
    <glyph glyph-name="fanhui" unicode="&#58960;" d="M605.696 647.68H458.752c-31.232 0-56.32 25.088-56.32 56.32v17.408c0 41.984-44.032 69.12-81.92 50.688L56.32 640c-41.472-20.992-41.472-80.384 0-100.864l264.192-132.096c37.376-18.944 81.92 8.704 81.92 50.688v17.408c0 31.232 25.088 56.32 56.32 56.32h164.352c174.592 0 262.144-73.216 262.144-219.648 0-151.552-90.112-226.816-270.848-226.816H156.16c-31.232 0-56.32-25.088-56.32-56.32v-3.584c0-31.232 25.088-56.32 56.32-56.32H619.52c245.76 0 369.152 110.592 369.152 332.288-0.512 230.912-128 346.624-382.976 346.624z"  horiz-adv-x="1024" />

    
    <glyph glyph-name="mimaxiugai" unicode="&#58957;" d="M744.9 459.9c-11 0-20 9-20 20v151c0 116.3-94.6 210.9-210.9 210.9s-210.9-94.6-210.9-210.9v-151c0-11-9-20-20-20s-20 9-20 20v151c0 67 26.1 130 73.5 177.4C384 855.7 447 881.8 514 881.8s130-26.1 177.4-73.5c47.4-47.4 73.5-110.4 73.5-177.4v-151c0-11.1-9-20-20-20zM834-111.2H194c-57.7 0-104.6 46.9-104.6 104.6V384.2c0 57.7 46.9 104.6 104.6 104.6h640c57.7 0 104.6-46.9 104.6-104.6v-390.8c0-57.7-47-104.6-104.6-104.6z m-640 560c-35.6 0-64.6-29-64.6-64.6v-390.8c0-35.6 29-64.6 64.6-64.6h640c35.6 0 64.6 29 64.6 64.6V384.2c0 35.6-29 64.6-64.6 64.6H194zM514.8 171c-10.9 0-19.8 8.7-20 19.7l-2.4 153.2c-0.2 11 8.6 20.1 19.7 20.3 11.1 0.2 20.1-8.6 20.3-19.7l2.4-153.2c0.2-11-8.6-20.1-19.7-20.3h-0.3zM513.9 6.7c-26.5 0-51.6 10.2-70.6 28.7-19.1 18.5-30 43.4-30.7 70-0.8 27.1 9.1 52.8 27.7 72.5s43.8 30.9 70.9 31.7h2.9c26.5 0 51.6-10.2 70.6-28.7 19.1-18.5 30-43.4 30.7-70 1.6-55.9-42.7-102.7-98.6-104.2h-2.9z m0.1 162.9h-1.8c-33.9-0.9-60.7-29.3-59.7-63.1 1-34.1 28.8-60.7 63.1-59.7 33.9 0.9 60.7 29.3 59.7 63.1-0.8 33.5-27.8 59.7-61.3 59.7z m65.9 155h-0.1l-60.5 0.3c-11 0.1-20 9.1-19.9 20.1 0.1 11 9 19.9 20 19.9h0.1l60.5-0.3c11-0.1 20-9.1 19.9-20.1-0.1-11-9-19.9-20-19.9z m-64.3-80.1c-10.8 0-19.7 8.6-20 19.4-0.3 11 8.4 20.2 19.4 20.5l84.6 2.4h0.6c10.8 0 19.7-8.6 20-19.4 0.3-11-8.4-20.2-19.4-20.5l-84.6-2.4h-0.6z"  horiz-adv-x="1024" />

    
    <glyph glyph-name="renwuguanli" unicode="&#58956;" d="M873.629538 894.897231h-727.04A145.408 145.408 0 0 1 1.024 749.489231v-727.118769c0-80.344615 65.063385-145.486769 145.408-145.48677h727.118769c80.344615 0 145.486769 65.142154 145.486769 145.48677v727.04c0 80.344615-65.142154 145.486769-145.486769 145.486769h0.078769z m72.861539-872.763077a72.467692 72.467692 0 0 0-72.310154-72.625231H146.747077a72.467692 72.467692 0 0 0-51.593846 21.267692 72.152615 72.152615 0 0 0-21.425231 51.357539V749.410462c0 40.251077 32.689231 72.861538 72.940308 72.861538h727.04c40.172308 0 72.782769-32.610462 72.782769-72.782769v-727.355077z m-118.075077 545.634461H537.521231a36.312615 36.312615 0 1 1 0-72.704h290.894769a36.312615 36.312615 0 1 1 0 72.704z m0-291.052307H537.521231a36.312615 36.312615 0 1 1 0-72.625231h290.894769a36.312615 36.312615 0 1 1 0 72.625231zM319.330462 367.616a127.291077 127.291077 0 1 1 0-254.503385 127.291077 127.291077 0 0 1 0 254.424616v0.078769z m38.596923-165.888a54.587077 54.587077 0 1 0-77.193847 77.193846 54.587077 54.587077 0 0 0 77.193847-77.193846z m44.819692 427.953231l-119.729231-119.729231-47.104 46.946462a36.312615 36.312615 0 1 1-51.357538-51.357539l72.704-72.704c14.178462-14.178462 37.179077-14.178462 51.357538 0l145.486769 145.408a36.312615 36.312615 0 0 1-51.357538 51.436308z"  horiz-adv-x="1024" />

    
    <glyph glyph-name="shenbao" unicode="&#59119;" d="M937.6 652.8c12.4 0 22.4 10 22.4 22.4v112c0 24.6-20.2 44.8-44.8 44.8H108.8C84.2 832 64 811.8 64 787.2v-806.4c0-24.6 20.2-44.8 44.8-44.8h806.4c24.6 0 44.8 20.2 44.8 44.8V496c0 12.4-10 22.4-22.4 22.4-12.4 0-22.4-10-22.4-22.4v-492.8c0-12.4-10-22.4-22.4-22.4H131.2c-12.4 0-22.4 10-22.4 22.4V764.8c0 12.4 10 22.4 22.4 22.4h761.6c12.4 0 22.4-10 22.4-22.4v-89.6c0-12.4 10-22.4 22.4-22.4zM609.3 137.60000000000002c12.3 0 22.4 10.1 22.4 22.4V374.70000000000005l88.5-88.5c8.7-8.7 23-8.7 31.7 0s8.7 23 0 31.7L625.2 444.6v0.1c-1.5 1.5-3.3 2.3-5 3.3-0.8 0.4-1.4 1.1-2.2 1.5-2.8 1.1-5.7 1.7-8.6 1.7-2.9 0-5.9-0.6-8.6-1.8-0.8-0.3-1.3-1-2.1-1.4-1.8-1-3.6-1.9-5.2-3.4v-0.1L466.8 318c-8.7-8.7-8.7-23 0-31.7s23-8.7 31.7 0l88.5 88.5V160c-0.1-12.3 10-22.4 22.3-22.4zM288 204.79999999999995c-12.4 0-22.4-10-22.4-22.4 0-12.4 10-22.4 22.4-22.4h112c12.4 0 22.4 10 22.4 22.4 0 12.4-10 22.4-22.4 22.4H288z m448 402H288c-12.4 0-22.4-10-22.4-22.4 0-12.4 10-22.4 22.4-22.4h448c12.4 0 22.4 10 22.4 22.4 0 12.4-10 22.4-22.4 22.4z m-268.8-178c0 12.4-10 22.4-22.4 22.4H288c-12.4 0-22.4-10-22.4-22.4 0-12.4 10-22.4 22.4-22.4h156.8c12.4 0 22.4 10 22.4 22.4z"  horiz-adv-x="1024" />

    
    <glyph glyph-name="zhengque1" unicode="&#59547;" d="M675.328 778.272c-48.096 20.48-104.064 32.384-162.816 32.384h-0.544H512C276.352 810.656 85.344 619.648 85.344 384S276.352-42.656 512-42.656 938.656 148.352 938.656 384a425.6 425.6 0 0 1-32.384 163.328 21.344 21.344 0 1 1-39.36-16.512l-0.064 0.16a376 376 0 0 0 29.12-146.432v-0.576V384c0-212.064-171.936-384-384-384s-384 171.936-384 384 171.936 384 384 384c51.104 0 100.8-9.984 146.976-29.12a21.344 21.344 0 0 1 16.48 39.36l-0.128 0.064z m-213.344-468.608l-105.664 105.632a21.216 21.216 0 0 1-30.112-0.032 21.44 21.44 0 0 1-0.064-30.112l120.8-120.832a21.152 21.152 0 0 1 30.112 0.096l211.168 211.168a21.248 21.248 0 0 1 0 30.208 21.312 21.312 0 0 1-30.24-0.096l-196-196z"  horiz-adv-x="1024" />

    
    <glyph glyph-name="zhengque" unicode="&#58954;" d="M511.968-64c-60.48 0-119.168 11.392-174.4 33.92a447.456 447.456 0 0 0-142.336 92.544 430.72 430.72 0 0 0-96 137.28A415.68 415.68 0 0 0 64 368c0 58.304 11.84 114.912 35.2 168.16A431.36 431.36 0 0 0 195.2 673.536 448.448 448.448 0 0 0 337.6 766.08 459.36 459.36 0 0 0 511.968 800c89.216 0 175.328-25.216 249.152-72.96a26.432 26.432 0 0 0 7.712-37.472 28.672 28.672 0 0 0-38.848-7.424 400.128 400.128 0 0 1-218.016 63.776c-216.128 0-392-169.6-392-378.016 0-208.384 175.872-377.984 392-377.984 216.096 0 391.936 169.6 391.936 377.984 0 13.44-0.672 26.912-2.176 40.256-1.664 14.848 9.536 28.096 24.96 29.696 15.36 1.6 29.12-9.184 30.784-24.032 1.664-15.104 2.528-30.624 2.528-45.92 0-58.304-11.84-114.88-35.2-168.16a429.792 429.792 0 0 0-95.936-137.28 448.448 448.448 0 0 0-142.368-92.544A462.528 462.528 0 0 0 512-64z m17.344 288a27.872 27.872 0 0 0-19.744 8l-181.376 177.152a26.88 26.88 0 0 0 0 38.656 28.448 28.448 0 0 0 39.552 0l161.664-157.952L912.256 664a28.448 28.448 0 0 0 39.552 0 26.88 26.88 0 0 0 0-38.624L549.12 231.936a28.512 28.512 0 0 0-19.808-7.936z"  horiz-adv-x="1024" />

    
    <glyph glyph-name="jigou1" unicode="&#58953;" d="M806.1 581.9L531.9 687.2c-8.5 3.2-17.8 3.2-26.3 0L231.3 581.9c-7.3-2.7-12.1-9.7-12.1-17.5v-43.2c0-10.3 8.4-18.7 18.7-18.7h561.6c10.3 0 18.7 8.4 18.7 18.7v43.2c0 7.7-4.8 14.7-12.1 17.5zM294.1 465v-187.2h-18.7c-10.3 0-18.7-8.4-18.7-18.7v-56.2h524.2v56.2c0 10.3-8.4 18.7-18.7 18.7h-18.7V465h-74.9v-187.2H556.2V465h-74.9v-187.2H368.9V465h-74.8zM799.5 165.5H237.9c-10.3 0-18.7-8.4-18.7-18.7v-37.4c0-10.3 8.4-18.7 18.7-18.7h561.6c10.3 0 18.7 8.4 18.7 18.7v37.4c0 10.3-8.3 18.7-18.7 18.7z"  horiz-adv-x="1024" />

    
    <glyph glyph-name="quanxianfenpei" unicode="&#59118;" d="M555.716923 357.927385a294.478769 294.478769 0 0 1-87.473231-209.841231c0-80.738462 32.374154-153.875692 84.834462-207.202462C330.436923-91.884308 0-58.958769 0 41.432615c0 143.123692 87.04 266.752 213.070769 324.923077a302.040615 302.040615 0 0 1 162.107077-46.592 302.08 302.08 0 0 1 162.658462 46.946462c6.065231-2.756923 12.051692-5.710769 17.92-8.782769zM111.064615 637.912615C111.064615 780.406154 229.179077 896 374.823385 896c145.723077 0 263.719385-115.515077 263.719384-258.087385 0-142.493538-118.035692-257.969231-263.719384-257.96923-145.644308 0-263.68 115.475692-263.68 257.96923M763.628308-107.913846a256 256 0 1 0 0 512 256 256 0 0 0 0-512z m-42.653539 157.341538h180.499693a39.384615 39.384615 0 1 1 0 78.769231h-275.692308a39.384615 39.384615 0 0 1-25.875692-69.080615l81.723076-81.723077a39.384615 39.384615 0 0 1 55.689847 55.689846l-16.344616 16.344615z m85.188923 197.238154h-180.381538a39.384615 39.384615 0 0 1 0-78.769231h273.880615a39.581538 39.581538 0 0 1 41.196308 39.384616 39.305846 39.305846 0 0 1-14.060308 30.168615l-81.211077 81.211077a39.384615 39.384615 0 1 1-55.689846-55.689846l16.265846-16.305231z"  horiz-adv-x="1024" />

    
    <glyph glyph-name="fangdajing" unicode="&#58952;" d="M950.221-6.552000000000021L679.275 264.394c49.481 60.042 79.2 136.978 79.2 220.856 0 191.919-155.582 347.5-347.5 347.5-191.919 0-347.5-155.581-347.5-347.5 0-191.918 155.581-347.5 347.5-347.5 84.273 0 161.538 30.002 221.702 79.903l270.874-270.874c12.888-12.887 33.782-12.887 46.67 0 12.886 12.888 12.886 33.783 0 46.669zM98.476 485.25c0 172.589 139.911 312.5 312.5 312.5 172.588 0 312.5-139.911 312.5-312.5 0-172.588-139.912-312.5-312.5-312.5-172.59 0-312.5 139.911-312.5 312.5z"  horiz-adv-x="1024" />

    
    <glyph glyph-name="chakan2" unicode="&#58950;" d="M607.839811 0.042898H214.69447A86.82497 86.82497 0 0 0 127.880338 86.929279V681.215219A86.839419 86.839419 0 0 0 214.69447 768.119662h594.28594a86.33729 86.33729 0 0 0 61.436749-25.456857c16.400473-16.400473 25.362934-38.208767 25.373771-61.411462L894.439878 288.178251v-0.10476a32.031496 32.031496 0 0 1 64.059379-0.101149L959.825022 681.110458v0.104761A150.775976 150.775976 0 0 1 808.98041 832.059831H214.69447A150.638703 150.638703 0 0 1 63.940169 681.215219v-594.28594a150.638703 150.638703 0 0 1 150.757914-150.82655h393.141728a31.970084 31.970084 0 0 1 0 63.940169zM950.544667-9.331381l-122.071536 122.071536a192.217875 192.217875 0 1 1-45.213286-45.213286l122.071536-122.071536a31.970084 31.970084 0 0 1 45.213286 45.213286z m-278.547941 105.302594a128.028448 128.028448 0 1 0 90.531332 37.497116 127.193975 127.193975 0 0 0-90.527719-37.497116zM768.004516 543.787205c17.653989 0 31.966472 14.402794 31.970084 32.056783s-14.308871 32.074845-31.966472 32.078457L256.002709 608.088618a32.020659 32.020659 0 0 1-31.970084-32.024271c0-17.657601 14.308871-32.092907 31.966472-32.092908L768.004516 543.787205zM448.000226 351.966698a31.96286 31.96286 0 1 1 0 63.940169h-192.001129a31.937573 31.937573 0 1 1 0-63.878758l192.001129-0.061411zM256.017159 224.08636a31.959247 31.959247 0 1 1 0-63.922107l127.999549-0.018062a31.941185 31.941185 0 1 1 0 63.878757z"  horiz-adv-x="1024" />

    
    <glyph glyph-name="top" unicode="&#59051;" d="M825.568 340.672l-287.392 289.28C531.808 636.352 523.488 639.424 515.2 639.36 514.08 639.456 513.12 640 512 640c-4.672 0-9.024-1.088-13.024-2.88-4.032-1.536-7.872-3.872-11.136-7.136l-259.328-258.88c-12.512-12.48-12.544-32.736-0.032-45.248 6.24-6.272 14.432-9.408 22.656-9.408 8.192 0 16.352 3.136 22.624 9.344L480 531.712 480-32c0-17.696 14.336-32 32-32s32 14.304 32 32L544 533.28l236.192-237.728c6.24-6.272 14.496-9.44 22.688-9.44s16.32 3.104 22.56 9.312C838.016 307.872 838.048 328.16 825.568 340.672zM864 704 160 704C142.336 704 128 718.336 128 736s14.336 32 32 32l704 0c17.696 0 32-14.336 32-32S881.696 704 864 704z"  horiz-adv-x="1024" />

    
    <glyph glyph-name="guanliyuanka" unicode="&#59097;" d="M475.428571 354.742857c65.828571 0 131.657143 29.257143 182.857143 73.142857 51.2 51.2 73.142857 109.714286 73.142857 175.542857s-21.942857 138.971429-73.142857 182.857143C607.085714 837.485714 548.571429 859.428571 475.428571 859.428571c-65.828571 0-131.657143-29.257143-182.857142-73.142857-43.885714-43.885714-73.142857-109.714286-73.142858-175.542857s29.257143-131.657143 73.142858-175.542857c51.2-51.2 117.028571-80.457143 182.857142-80.457143z m0 409.6c87.771429 0 153.6-65.828571 153.6-153.6S563.2 457.142857 475.428571 457.142857c-80.457143 0-153.6 65.828571-153.6 153.6s73.142857 153.6 153.6 153.6zM928.914286 281.6c21.942857 7.314286 36.571429 29.257143 36.571428 51.2 0 29.257143-21.942857 51.2-51.2 51.2h-65.828571v14.628571h65.828571c29.257143 0 51.2 21.942857 51.2 51.2 0 29.257143-21.942857 51.2-51.2 51.2h-117.028571c-29.257143 0-51.2-21.942857-51.2-51.2v-226.742857c-65.828571-21.942857-117.028571-80.457143-117.028572-153.6 0-87.771429 73.142857-160.914286 168.228572-160.914285s168.228571 73.142857 168.228571 160.914285c0 73.142857-43.885714 131.657143-117.028571 153.6v58.514286h80.457143z m-65.828572-212.114286c0-36.571429-29.257143-65.828571-65.828571-65.828571s-65.828571 29.257143-65.828572 65.828571 29.257143 65.828571 65.828572 65.828572 65.828571-29.257143 65.828571-65.828572zM687.542857 288.914286c0 29.257143-21.942857 51.2-51.2 51.2h-365.714286c-51.2-7.314286-102.4-21.942857-146.285714-58.514286-43.885714-36.571429-65.828571-87.771429-65.828571-146.285714v-146.285715c0-29.257143 21.942857-51.2 51.2-51.2s51.2 21.942857 51.2 51.2v146.285715c0 58.514286 51.2 102.4 117.028571 102.4h365.714286c21.942857 0 43.885714 21.942857 43.885714 51.2z"  horiz-adv-x="1024" />

    
    <glyph glyph-name="Alei" unicode="&#58949;" d="M959.043232 563.717172a42.330505 42.330505 0 0 1-21.152323 36.641616 42.335677 42.335677 0 0 1-42.304646 0A42.286545 42.286545 0 0 1 874.433939 563.717172c0-23.363232 18.941414-42.304646 42.304647-42.304647s42.304646 18.941414 42.304646 42.304647zM808.856566 744.934141a42.330505 42.330505 0 0 1-21.152324 36.641617 42.335677 42.335677 0 0 1-42.304646 0 42.286545 42.286545 0 0 1-21.152323-36.641617c0-23.363232 18.941414-42.304646 42.304646-42.304646s42.304646 18.941414 42.304647 42.304646z m0 0M512.620606-103.227475C780.722424-103.227475 998.141414 114.088081 998.141414 382.293333c0 71.369697-15.411717 139.222626-43.132121 200.248889l-76.748283-36.615757c22.445253-49.958788 34.857374-105.296162 34.857374-163.633132 0-221.142626-179.251717-400.497778-400.497778-400.497777S112.122828 161.047273 112.122828 382.293333 291.47798 782.687677 512.620606 782.687677c84.712727 0 163.322828-26.272323 227.969293-71.162829l53.061818 59.164445c-1.551515 0.72404-2.585859 2.172121-2.585858 3.723636s-0.310303 3.309899 1.241212 4.03394c-79.334141 56.371717-175.010909 89.160404-279.686465 89.160404-268.101818 0-485.520808-217.315556-485.520808-485.520808 0-268.205253 217.41899-485.313939 485.520808-485.31394z m0 0M849.687273 657.842424m-42.395152 0a42.395152 42.395152 0 1 1 84.790303 0 42.395152 42.395152 0 1 1-84.790303 0ZM441.612929 226.585859h-44.877575l-32.077576 86.096161H233.68404l-30.254545-86.096161H158.551919l119.802828 314.517979h43.455354l119.802828-314.517979z m-89.548283 121.625858l-47.515151 130.766869c-1.486869 4.189091-3.11596 11.507071-4.874343 21.928081H298.666667c-1.486869-9.477172-3.180606-16.782222-5.081212-21.928081l-47.114344-130.766869h105.593535zM858.259394 203.235556c-5.417374-6.21899-12.593131-16.924444-21.527273-32.077576-87.996768 17.053737-148.764444 54.690909-182.341818 112.898586-24.100202-59.836768-84.738586-98.404848-181.928081-115.743031-4.874343 9.205657-10.692525 19.225859-17.467475 30.047677 91.500606 12.450909 148.092121 44.528485 169.748687 96.245657H464.342626v28.431515H633.276768c2.159192 8.934141 3.930505 19.626667 5.275151 32.077576h32.491313c-1.900606-12.179394-3.788283-22.871919-5.688889-32.077576h179.083637v-28.431515H681.606465c36.008081-52.260202 94.90101-82.708687 176.652929-91.371313zM467.600808 469.630707h172.179394v101.520808h30.862222v-101.520808h170.563233v-27.203232H670.642424v-23.95798l11.364849 15.437576c73.632323-28.70303 130.081616-51.717172 169.347879-69.042425l-14.209293-26.401616c-45.756768 23.557172-101.249293 47.91596-166.503435 73.102223v-42.24h-30.862222V437.139394c-48.187475-45.485253-102.878384-77.976566-164.059798-97.46101-5.688889 8.391111-12.321616 17.325253-19.898182 26.802424 61.724444 17.325253 113.570909 42.640808 155.539394 75.933737H467.600808v27.216162zM504.953535 537.858586l19.898182 21.527273c28.961616-20.583434 52.790303-39.12404 71.473131-55.634748l-21.92808-23.95798c-16.782222 16.769293-39.925657 36.137374-69.443233 58.065455z m302.144647-0.413738c-16.782222-14.08-41.826263-33.435152-75.132121-58.078383l-21.113536 21.527272c21.656566 15.437576 46.028283 34.92202 73.102222 58.479192l23.143435-21.928081z"  horiz-adv-x="1024" />

    
    <glyph glyph-name="excel" unicode="&#58947;" d="M625.664 763.392v-67.072h309.76v-43.008h-309.76v-69.632h309.76v-43.008h-309.76v-68.608h309.76v-43.008h-309.76v-68.608h309.76v-43.008h-309.76v-68.608h309.76v-43.008h-309.76v-68.096h309.76v-43.008h-309.76v-89.088H1024v757.76H625.664zM0-18.944L577.024-128V896L0 786.944v-805.888zM229.376 235.52h-89.6l118.272 187.904-112.64 180.736h92.16l65.536-119.808 67.584 119.808h89.088l-112.64-177.664L466.944 235.52H373.248l-70.144 125.44z"  horiz-adv-x="1024" />

    
    <glyph glyph-name="dashujukeshihuaico-" unicode="&#59394;" d="M57.6 763.52v-785.92h908.8V763.52z m844.16-64v-203.52H121.6V699.52zM397.44 268.79999999999995V432h220.16V268.79999999999995z m220.8-64v-163.2H397.44V204.79999999999995zM121.6 432h211.2V268.79999999999995H121.6z m560 0h220.8V268.79999999999995h-220.8zM121.6 204.79999999999995h211.2v-163.2H121.6z m560-163.2V204.79999999999995h220.8v-163.2z"  horiz-adv-x="1024" />

    
    <glyph glyph-name="shujuguanli" unicode="&#59019;" d="M175.5-35c-17.67 0-32 14.33-32 32V231.26c0 17.67 14.33 32 32 32s32-14.33 32-32V-3c0-17.67-14.33-32-32-32zM399.83-35c-17.67 0-32 14.33-32 32V350.41c0 17.67 14.33 32 32 32s32-14.33 32-32V-3c0-17.67-14.32-32-32-32zM624.17-35c-17.67 0-32 14.33-32 32V291.21c0 17.67 14.33 32 32 32s32-14.33 32-32V-3c0-17.67-14.33-32-32-32zM848.5-35c-17.67 0-32 14.33-32 32V400c0 17.67 14.33 32 32 32s32-14.33 32-32v-403c0-17.67-14.33-32-32-32zM169.46 377c-8.22 0-16.43 3.14-22.68 9.43-12.47 12.53-12.42 32.79 0.11 45.25l229.9 228.77c10.99 10.94 28.24 12.42 40.94 3.52L585.2 546.56l200.95 195.39c12.67 12.32 32.93 12.04 45.25-0.63s12.04-32.93-0.63-45.25L610.82 482.21c-11.02-10.71-28.09-12.08-40.68-3.26L402.92 596.18l-210.9-209.87c-6.24-6.21-14.4-9.31-22.56-9.31zM854.5 626.62c-16.2 0-30.1 12.26-31.79 28.72l-7.4 71.85-82.64-0.03h-0.01c-17.67 0-31.99 14.32-32 31.99-0.01 17.67 14.32 32 31.99 32.01l111.52 0.04h0.01c16.4 0 30.15-12.4 31.83-28.72l10.36-100.59c1.81-17.58-10.97-33.3-28.55-35.11-1.11-0.1-2.22-0.16-3.32-0.16z"  horiz-adv-x="1024" />

    
    <glyph glyph-name="star" unicode="&#58944;" d="M985.40660064-126.833122c-14.910104 0-31.765004 4.278552-47.323373 12.057736l-222.225373 111.112687L492.20629664-114.51607999999999c-14.132185-7.519878-30.33882-11.539124-46.934413-11.539124-21.522411-0.129653-42.396556 6.74196-59.640416 19.577615-31.246391 23.467207-47.323373 64.178273-39.933147 101.1294l45.767536 237.26513L216.04524364 395.409471c-27.097493 27.486452-37.469739 67.289947-27.227146 104.370727l0.388959 1.166877c12.706002 38.247658 44.341352 64.956191 82.718663 70.142315L515.54385064 615.430742l109.297544 222.09572c17.503165 35.135984 53.287415 57.695619 91.01646 57.69562 39.414535 0 76.106356-23.467207 91.405419-58.343885l108.908584-221.447455 243.618131-42.655862c38.636617-5.575082 70.401621-33.320841 81.162826-70.920233 12.057736-36.951127 2.204102-77.402887-25.412003-104.759686l-0.648265-0.648266-174.772347-164.659407 44.211699-237.65409c7.130919-37.988351-8.038491-76.365662-39.414536-100.351481-16.8549-13.48392-37.858698-20.744492-59.510762-20.614839z m-269.548746 187.996961l248.026335-124.077994c7.260572-3.630286 15.688022-5.964042 21.392758-5.964042 8.816409 0 17.114206 2.722715 23.078248 7.779185l1.166877 0.907571c14.132185 10.631552 21.003798 27.356799 17.892125 43.82274l-49.916435 268.900481 197.461636 185.922512c12.057736 12.317042 16.206635 29.820208 10.890859 46.026842l-0.518613 1.68549c-4.408205 15.688022-17.632818 27.227146-33.709799 29.431249l-1.166878 0.129653L877.27593464 563.439858 754.36481764 813.151684c-5.964042 14.002532-22.170676 24.115472-38.506963 24.115472-16.076982 0-31.376045-10.11294-39.284883-25.541656L554.43977364 563.5695109999999 279.83455764 513.6530769999999c-16.725247-2.074449-29.690555-13.224614-35.654596-30.468473-4.278552-15.817675 0.777918-34.747025 12.446695-46.675108l197.591289-184.237022-51.861231-269.030134c-3.111674-15.558369 4.278552-33.450494 17.892125-43.693087 6.871613-5.186123 15.688022-7.908838 25.023044-7.908838 7.130919 0 14.002532 1.68549 19.966573 4.797164l0.907572 0.518612 249.711826 124.207648z m0 0"  horiz-adv-x="1427" />

    
    <glyph glyph-name="shoucang" unicode="&#58946;" d="M819.483-127.993a86.15 86.15 0 0 0-36.495 9.59L533.223 6.479l-251.682-124.882a76.613 76.613 0 0 0-80.662 5.754 79.383 79.383 0 0 0-30.742 76.826l51.893 268.945-197.926 184.5a84.551 84.551 0 0 0-21.311 80.662 76.56 76.56 0 0 0 63.4 53.81l274.859 49.974L464.069 851.78A78.371 78.371 0 0 0 533.33 895.947a76.24 76.24 0 0 0 69.26-44.167l122.965-249.765 274.699-47.95a74.109 74.109 0 0 0 61.482-53.81 78.318 78.318 0 0 0-19.233-80.662L844.63 233.122l49.975-268.945a77.838 77.838 0 0 0-30.741-76.826 68.462 68.462 0 0 0-44.168-15.344z"  horiz-adv-x="1065" />

    
    <glyph glyph-name="lishi" unicode="&#58943;" d="M248.035556 783.985778a7.964444 7.964444 0 0 0 7.964444-7.964445v-87.267555a397.994667 397.994667 0 1 0-141.767111-319.146667l-0.170667 6.428445a7.793778 7.793778 0 0 0 7.395556 7.964444h56.661333a7.964444 7.964444 0 0 0 7.964445-7.566222v-0.455111A325.973333 325.973333 0 1 1 310.101333 640h81.92a7.964444 7.964444 0 0 0 7.964445-7.964444v-56.035556a7.964444 7.964444 0 0 0-7.964445-7.964444H192a7.964444 7.964444 0 0 0-7.964444 7.964444V776.021333a7.964444 7.964444 0 0 0 7.964444 7.964445h55.978667zM534.983111 543.971556a7.964444 7.964444 0 0 0 7.964445-7.964445V376.604444h146.887111a7.964444 7.964444 0 0 0 7.964444-8.021333v-55.978667a7.964444 7.964444 0 0 0-7.964444-8.021333H479.004444a7.964444 7.964444 0 0 0-7.964444 7.964445V536.064a7.964444 7.964444 0 0 0 7.964444 7.964444h55.978667z"  horiz-adv-x="1024" />

    
    <glyph glyph-name="yijianfankui" unicode="&#59492;" d="M810.666667 810.666667a128 128 0 0 0 127.786666-120.490667L938.666667 682.666667v-426.666667a128 128 0 0 0-120.490667-127.786667L810.666667 128h-220.672a42.666667 42.666667 0 0 1-25.941334-8.789333l-4.224-3.712-145.664-145.664a42.666667 42.666667 0 0 0-63.872 56.32l3.541334 4.010666 145.664 145.664a128 128 0 0 0 82.048 37.205334l8.448 0.298666H810.666667a42.666667 42.666667 0 0 1 42.368 37.674667L853.333333 256V682.666667a42.666667 42.666667 0 0 1-37.674666 42.368L810.666667 725.333333H213.333333a42.666667 42.666667 0 0 1-42.368-37.674666L170.666667 682.666667v-426.666667a42.666667 42.666667 0 0 1 37.674666-42.368L213.333333 213.333333h85.333334a42.666667 42.666667 0 0 0 4.992-85.034666L298.666667 128H213.333333a128 128 0 0 0-127.786666 120.490667L85.333333 256V682.666667a128 128 0 0 0 120.490667 127.786666L213.333333 810.666667h597.333334zM362.666667 512a42.666667 42.666667 0 1 0 0-85.333333h-42.666667a42.666667 42.666667 0 0 0 0 85.333333h42.666667z m170.666666 0a42.666667 42.666667 0 0 0 0-85.333333h-42.666666a42.666667 42.666667 0 0 0 0 85.333333h42.666666z m170.666667 0a42.666667 42.666667 0 0 0 0-85.333333h-42.666667a42.666667 42.666667 0 0 0 0 85.333333h42.666667z"  horiz-adv-x="1024" />

    
    <glyph glyph-name="yijian" unicode="&#58942;" d="M1024 52.705882 300.965647 52.705882 0-127.638588 0 413.846588 0 413.846588 0 803.117176C0 854.407529 41.592471 896 92.912941 896L1024 896C1057.28 896 1084.235294 869.044706 1084.235294 835.764706L1084.235294 112.941176C1084.235294 79.691294 1057.28 52.705882 1024 52.705882ZM1024 835.764706 60.235294 835.764706 60.235294 293.647059 60.114824-7.860706 277.172706 112.941176 1024 112.941176 1024 835.764706ZM210.823529 414.117647C210.823529 430.742588 224.316235 444.235294 240.941176 444.235294L421.647059 444.235294C438.272 444.235294 451.764706 430.742588 451.764706 414.117647 451.764706 397.492706 438.272 384 421.647059 384L240.941176 384C224.316235 384 210.823529 397.492706 210.823529 414.117647ZM210.823529 624.941176C210.823529 641.566118 224.316235 655.058824 240.941176 655.058824L692.705882 655.058824C709.330824 655.058824 722.823529 641.566118 722.823529 624.941176 722.823529 608.316235 709.330824 594.823529 692.705882 594.823529L240.941176 594.823529C224.316235 594.823529 210.823529 608.316235 210.823529 624.941176Z"  horiz-adv-x="1085" />

    
    <glyph glyph-name="wenjian2" unicode="&#58959;" d="M640.042667 896c69.12 0 289.237333-218.624 298.368-294.058667l0.298666-4.608v-597.333333a128 128 0 0 0-120.490666-127.786667l-7.509334-0.213333h-554.666666a170.666667 170.666667 0 0 0-170.453334 162.133333L85.333333 42.66666699999996V768A128 128 0 0 0 205.866667 895.786667L213.333333 896h426.666667z m-42.666667-85.333333h-384a42.666667 42.666667 0 0 1-42.368-37.674667L170.666667 768v-725.333333a85.333333 85.333333 0 0 1 78.933333-85.12l6.4-0.213334h554.666667a42.666667 42.666667 0 0 1 42.368 37.674667l0.298666 4.992V554.666667h-128a128 128 0 0 0-127.786666 120.490666L597.376 682.666667V810.666667z m85.333333-640a42.666667 42.666667 0 0 0 0-85.333334h-341.333333a42.666667 42.666667 0 0 0 0 85.333334h341.333333z m0 213.333333a42.666667 42.666667 0 0 0 0-85.333333h-341.333333a42.666667 42.666667 0 0 0 0 85.333333h341.333333z m0 397.098667V682.666667a42.666667 42.666667 0 0 1 37.674667-42.368l4.992-0.298667 98.517333-0.042667A1572.608 1572.608 0 0 1 682.666667 781.098667z"  horiz-adv-x="1024" />

    
    <glyph glyph-name="111" unicode="&#59156;" d="M802.128 154.414c-0.004-35.598-28.866-64.454-64.462-64.448H286.418c-35.598-0.006-64.46 28.85-64.464 64.448V605.552S221.586 670 286.418 670h137.664l136-106.358h177.586s64.336 5.514 64.464-58.91c0.126-64.424 0-81.29 0-81.29l-0.004-269.028zM737.676 59.96600000000001H286.418c-52.086-0.004-94.458 42.364-94.464 94.444V605.552c-0.024 4.026 0.546 41.62 27.55 68.778C231.148 686.042 252.208 700 286.418 700h148.002l136-106.358h166.298c1.124 0.06 2.706 0.118 4.672 0.118 45.078 0 90.62-27.51 90.742-88.968 0.122-61.87 0.012-79.788 0-81.464l-0.004-268.914c-0.004-52.08-42.376-94.448-94.452-94.448zM286.418 640c-16.438 0-22.406-6.002-24.366-7.974-9.43-9.484-10.098-26.142-10.098-26.302v-451.31c0.002-18.994 15.458-34.45 34.452-34.448h451.27c18.996 0 34.452 15.456 34.454 34.452l0.004 269.25c0.002 0.168 0.126 17.626 0 81.006-0.02 9.44-0.058 29.086-30.742 29.086-0.582 0-1.03-0.012-1.31-0.024l-1.46-0.158-0.952 0.064h-187.924l-136 106.358h-127.328zM613.002 310.304H401.266c-16.568 0-30 13.432-30 30s13.432 30 30 30h211.736c16.568 0 30-13.432 30-30s-13.432-30-30-30zM767.278 624.38H578.96c-16.568 0-30 13.432-30 30s13.432 30 30 30h188.316c16.568 0 30-13.432 30-30s-13.43-30-29.998-30zM512 215.69600000000003c-16.568 0-30 13.432-30 30V433c0 16.568 13.432 30 30 30s30-13.432 30-30v-187.304c0-16.57-13.432-30-30-30z"  horiz-adv-x="1024" />

    
    <glyph glyph-name="chakan1" unicode="&#58941;" d="M512 76.8c-384 0-512 320-512 320s128 320 512 320 512-320 512-320-134.4-320-512-320z m0 505.6c-102.4 0-192-83.2-192-192 0-102.4 83.2-192 192-192 102.4 0 192 83.2 192 192-6.4 108.8-89.6 192-192 192z m0-313.6c-70.4 0-128 57.6-128 128h128L416 480c25.6 25.6 57.6 38.4 96 38.4 70.4 0 128-57.6 128-128-6.4-70.4-57.6-121.6-128-121.6z"  horiz-adv-x="1024" />

    
    <glyph glyph-name="jishuzhuanjia" unicode="&#59022;" d="M536.436646 894.407388c42.502843 1.766804 85.503378-0.360826 126.948627-10.451519 39.429599-9.568117 77.540316-27.696525 106.580608-56.475529 29.625079-28.878542 48.487582-67.225662 58.702697-106.966318 8.522965-32.847631 11.857497-66.827509 12.404958-100.682965 2.077861-89.323159-27.447679-178.571665-80.750425-250.089915-24.697934-33.096476-54.434994-62.733998-88.974776-85.51582-20.181385-13.40034-42.166902-24.312224-65.483742-31.031057-24.175358-7.104544-50.05531-8.622503-74.72836-3.222552-41.495018 8.834022-78.946294 31.080826-111.234022 58.030814-64.811859 54.882916-111.05983 131.042139-131.141676 213.472273-12.840437 51.971422-13.313244 106.356646-6.084277 159.199027 6.519757 45.215261 21.214095 90.442965 49.769137 126.712224 24.088262 31.080826 57.943718 53.738226 94.77288 66.964374 34.925492 12.877764 72.177691 18.315043 109.218371 20.056963zM327.256962 235.14051c13.375456 5.325298 29.488214 2.525784 40.41254-6.818371 6.930352-5.474605 10.575942-13.686513 14.694338-21.251422 25.755529-47.653949 51.523499-95.295456 77.266585-142.961847 2.600437-4.976914 5.33774-10.177789 10.053366-13.499879 10.065808-7.751543 25.680875-6.258469 34.378032 2.88661 8.012831 8.087485 9.406367 21.51271 3.720243 31.292346-6.009623 11.459344-12.044131 22.906245-18.02887 34.378031-3.446513 6.432661-4.205492 14.283742-1.717036 21.164326 1.430863 4.392126 4.404569 8.000389 7.378275 11.422017 11.422017 13.474994 22.694727 27.061968 34.166513 40.499635 11.70819 13.313244 32.536574 17.120583 48.226294 8.858907 8.22435-3.857108 13.736282-11.285152 19.434848-18.053755 9.841847-11.70819 19.758348-23.341725 29.550425-35.087242 6.432661-7.78887 7.552467-19.422406 2.77463-28.318639-6.221142-12.031689-12.616476-23.988724-18.837619-36.020413-5.026683-9.493463-3.384301-22.047728 4.018858-29.861482 7.316063-7.863524 19.671252-10.439077 29.525541-6.121604 5.61147 2.28938 10.040923 6.868141 12.852879 12.168554 27.634313 51.150231 55.318396 102.288019 82.940268 153.450692 2.575553 5.001798 5.599028 9.866731 9.80452 13.661629 12.180996 11.621094 31.852248 14.2713 46.621239 6.121604 70.846367-37.078007 141.568311-74.541725 210.125298-115.750572 18.57633-11.496671 37.326853-22.868919 54.372782-36.592758 10.911883-8.460753 18.165735-20.504885 24.635723-32.486804 8.087485-15.353779 14.856087-31.366999 21.027461-47.579295 5.101337-13.698955 11.023864-27.385468 11.907266-42.179344v-9.493463c-1.953439-31.093269-22.968457-60.158445-52.369575-70.871252-14.184204-5.748335-29.68729-5.33774-44.692685-5.188432-312.711932 0-625.423864 0-938.148238 0.012442-9.866731-0.087096-19.77079 1.331324-29.077619 4.678299-23.714994 8.274119-42.726804 28.393293-50.080194 52.369575-5.126221 16.28695-4.840049 34.20384 0.796306 50.316597 5.77322 16.598007 12.069016 33.034265 19.285541 49.047485 7.851081 16.921507 15.951009 34.465128 29.500656 47.641507 17.556063 15.341337 37.749891 27.261045 57.446027 39.591349 63.505419 38.322236 129.014046 73.185516 194.622211 107.73774 7.154313 3.583378 14.047339 7.701774 21.413171 10.837229z"  horiz-adv-x="1118" />

    
    <glyph glyph-name="xiazai1" unicode="&#59277;" d="M480.1024 293.7856V665.6512c0 23.3472 17.92 42.24 39.936 42.24 22.1184 0 40.0384-18.944 40.0384-42.24v-371.6096l107.52 107.52a39.9872 39.9872 0 0 0 56.6272-56.5248l-175.9232-175.9744a39.9872 39.9872 0 0 0-56.576 0L315.648 345.088A39.9872 39.9872 0 1 0 372.224 401.6128l107.8784-107.8272z m399.872-221.7984V216.064a39.9872 39.9872 0 1 0 80.0256 0v-184.0128a39.9872 39.9872 0 0 0-48.0256-39.2192 39.936 39.936 0 0 0-7.9872-0.768h-768a39.936 39.936 0 0 0-7.9872 0.768 39.9872 39.9872 0 0 0-48.0256 39.2192v184.0128a39.9872 39.9872 0 1 0 80.0256 0v-144.0256h720.0256z"  horiz-adv-x="1024" />

    
    <glyph glyph-name="shending" unicode="&#58938;" d="M855.616 261.696h-137.344a157.824 157.824 0 0 0-22.016 18.752c-28.096 28.8-29.76 53.568-29.248 62.784l0.192 6.464v0.32c0 2.688 4.416 15.872 15.616 35.008a646.144 646.144 0 0 0 46.08 66.368 266.688 266.688 0 0 1 62.144 171.072C791.04 768.704 673.152 888.896 522.624 896h-20.48C350.912 888.832 232.384 768.704 232.384 622.464c0.128-62.848 22.336-123.84 62.528-171.904l2.048-2.624c11.008-13.952 21.44-28.352 31.36-43.136 20.032-30.464 28.16-50.752 27.904-54.464v-6.592c0.64-9.216-1.024-33.344-27.712-61.76l-1.536-1.536c-6.336-6.528-13.632-12.8-21.952-18.624H167.936c-91.456-0.128-132.16-35.968-132.16-116.352v-178.816c0-25.216 9.92-49.024 27.84-66.944 17.856-17.92 41.536-27.712 66.816-27.712l762.496 1.536a94.72 94.72 0 0 1 94.464 94.656v177.216c0 80.448-40.64 116.352-131.776 116.288z m-749.76-295.04v178.688c0 21.632 2.816 31.808 10.24 37.696 8 6.144 22.656 8.64 51.904 8.64h157.888l8.512 5.44c15.616 9.792 29.952 21.312 42.88 34.304 45.504 47.04 50.24 92.672 49.024 116.032 0.896 23.936-10.944 52.672-39.488 96-12.096 18.112-24.96 35.712-38.592 52.672a198.208 198.208 0 0 0-45.632 126.272c0 108.736 88.448 198.08 201.344 203.456h16.896c112.128-5.376 199.936-94.656 199.936-203.392a197.12 197.12 0 0 0-45.888-126.464c-13.12-16.384-25.536-33.408-37.12-50.816a415.808 415.808 0 0 1-15.488-24.96c-18.304-31.488-25.92-53.312-25.216-72.768-1.344-23.232 3.392-68.928 48.896-115.84 12.992-13.184 27.328-24.768 42.88-34.624l8.704-5.44h158.528c56.064 0 61.44-8.128 61.44-46.208v-177.152a24.576 24.576 0 0 0-24.448-24.576h-0.128l-762.496-1.472a24.32 24.32 0 0 0-24.512 24.192l-0.064 0.32zM327.936 91.072h368.256v-70.208H327.936v70.208z"  horiz-adv-x="1024" />

    
    <glyph glyph-name="huiche" unicode="&#58940;" d="M512 42.667H256c-23.467 0-42.667 19.2-42.667 42.666V682.667c0 23.466 19.2 42.666 42.667 42.666h490.667c23.466 0 42.666-19.2 42.666-42.666V320c0-12.8 8.534-21.333 21.334-21.333S832 307.2 832 320V682.667C832 729.6 793.6 768 746.667 768H256c-46.933 0-85.333-38.4-85.333-85.333v-597.334C170.667 38.4 209.067 0 256 0h256c12.8 0 21.333 8.533 21.333 21.333S524.8 42.667 512 42.667zM704 554.667c0 12.8-8.533 21.333-21.333 21.333H320c-12.8 0-21.333-8.533-21.333-21.333S307.2 533.333 320 533.333h362.667c12.8 0 21.333 8.534 21.333 21.334z m-384-128c-12.8 0-21.333-8.534-21.333-21.334S307.2 384 320 384h170.667c12.8 0 21.333 8.533 21.333 21.333s-8.533 21.334-21.333 21.334H320z m469.333-192H563.2L616.533 288c8.534 8.533 8.534 21.333 0 29.867-8.533 8.533-21.333 8.533-29.866 0l-89.6-89.6c-2.134-2.134-4.267-4.267-4.267-6.4-2.133-4.267-2.133-10.667 0-17.067 2.133-2.133 2.133-4.267 4.267-6.4l89.6-89.6c8.533-8.533 21.333-8.533 29.866 0 8.534 8.533 8.534 21.333 0 29.867L563.2 192h226.133c36.267 0 64-34.133 64-74.667s-27.733-74.666-64-74.666H682.667c-12.8 0-21.334-8.534-21.334-21.334S669.867 0 682.667 0h106.666C849.067 0 896 53.333 896 117.333s-46.933 117.334-106.667 117.334z"  horiz-adv-x="1024" />

    
    <glyph glyph-name="jilu" unicode="&#58936;" d="M512 891.392c-97.28 0-192-27.648-273.408-79.872-73.216-47.104-133.632-111.616-174.592-187.904v168.96c0 13.312-10.752 23.552-23.552 23.552H27.648c-13.312 0-23.552-10.752-23.552-23.552v-214.528c0-2.048 0.512-4.096 1.024-6.144-0.512-2.048-1.024-4.096-1.024-6.144V552.96c0-13.312 10.752-24.064 24.064-24.064h214.016c13.312 0 24.064 10.752 24.064 24.064v12.8c0 13.312-10.752 24.064-24.064 24.064H114.688C192 738.816 343.552 830.976 512 830.976c246.784 0 448-200.704 448-448 0-246.784-200.704-448-448-448-246.784 0-448 200.704-448 448v5.12H3.584v-5.12c0-280.576 228.352-508.416 508.416-508.416s508.416 228.352 508.416 508.416C1020.928 663.552 792.576 891.392 512 891.392zM481.792 351.744c0-13.312 10.752-24.064 24.064-24.064h214.016c13.312 0 24.064 10.752 24.064 24.064v12.8c0 13.312-10.752 24.064-24.064 24.064H542.72V616.448c0 13.312-10.752 23.552-23.552 23.552h-13.312c-13.312 0-23.552-10.752-23.552-23.552v-239.616c0-2.048 0.512-4.096 1.024-6.144-0.512-2.048-1.024-4.096-1.024-6.144v-12.8z"  horiz-adv-x="1024" />

    
    <glyph glyph-name="nianling" unicode="&#58970;" d="M370.657 64.911h-84.905c-49.11 0-89.077 39.936-89.077 88.945V608.42c0 49.065 39.966 88.94 89.077 88.94h450.765c49.09 0 89.068-39.896 89.068-88.94v-24.023a24.325 24.325 0 0 1 24.35-24.325 24.32 24.32 0 0 1 24.33 24.325V608.42c0 75.868-61.798 137.6-137.743 137.6H285.757c-75.965 0-137.794-61.732-137.794-137.6v-454.564c0-75.843 61.829-137.605 137.794-137.605h84.905a24.346 24.346 0 0 1 24.366 24.33 24.361 24.361 0 0 1-24.37 24.33z m-95.068 454.4h-0.425a24.32 24.32 0 0 1-24.35-24.3 24.346 24.346 0 0 1 24.35-24.33h0.425a24.335 24.335 0 0 1 24.35 24.33 24.32 24.32 0 0 1-24.35 24.3z m81.705 0a24.335 24.335 0 0 1-24.366-24.3 24.346 24.346 0 0 1 24.366-24.33h137.231a24.33 24.33 0 0 1 24.346 24.33 24.33 24.33 0 0 1-24.346 24.3h-137.23z m-81.705-126.96h-0.425a24.335 24.335 0 0 1-24.35-24.33 24.346 24.346 0 0 1 24.35-24.31h0.425a24.335 24.335 0 0 1 24.35 24.31 24.335 24.335 0 0 1-24.35 24.33z m145.639 0h-63.934a24.346 24.346 0 0 1-24.366-24.33 24.346 24.346 0 0 1 24.366-24.31h63.928a24.346 24.346 0 0 1 24.366 24.31 24.356 24.356 0 0 1-24.36 24.33z m395.115-155.623c-17.065 17.004-36.618 30.618-57.892 40.428 30.444 24.642 49.9 62.228 49.9 104.279 0 74.03-60.278 134.262-134.451 134.262-74.148 0-134.431-60.212-134.431-134.262 0-42.05 19.456-79.637 49.879-104.28a201.021 201.021 0 0 1-57.872-40.427c-38.041-38.005-58.997-88.514-58.997-142.264a24.34 24.34 0 0 1 24.345-24.31 24.35 24.35 0 0 1 24.372 24.31c0 84.116 68.526 152.545 152.76 152.545 84.214 0 152.72-68.429 152.72-152.545 0-13.414 10.93-24.31 24.39-24.31a24.356 24.356 0 0 1 24.346 24.31c-0.066 53.75-21.022 104.259-59.069 142.264z m-142.459 59.095c-47.273 0-85.75 38.395-85.75 85.617 0 47.217 38.477 85.601 85.75 85.601s85.755-38.39 85.755-85.601c0-47.222-38.477-85.617-85.755-85.617z"  horiz-adv-x="1024" />

    
    <glyph glyph-name="lingyu" unicode="&#58937;" d="M529.994421 896a195.114114 195.114114 0 1 1 195.114114-195.114114A195.114114 195.114114 0 0 1 529.994421 896z m0-311.585942a116.471828 116.471828 0 1 0 116.471828 116.471828A116.471828 116.471828 0 0 0 529.994421 584.414058zM1053.26077 160.228104a192.956053 192.956053 0 0 1-90.44815 117.804748 12.694477 12.694477 0 0 0-1.58681 0.888613c0.507779 8.25141 0.698196 16.566293 0.698197 25.00812a432.05653 432.05653 0 0 1-237.196306 385.340854 194.47939 194.47939 0 0 0-22.151863-79.277009l2.792785-1.58681a352.398686 352.398686 0 0 0 176.199343-304.667452v-23.929089l-23.929089-1.58681a177.72268 177.72268 0 0 1-35.417591-5.522097 168.773074 168.773074 0 0 1-119.074196-206.602616 162.489308 162.489308 0 0 1 12.694477-32.815224l10.980723-21.390194-20.75547-12.123225a349.923263 349.923263 0 0 0-352.208269 0l-20.75547 12.123225 11.044195 21.390194a167.630571 167.630571 0 0 1-4.189178 160.775554 168.646129 168.646129 0 0 1-102.44443 78.705758 178.801711 178.801711 0 0 1-35.036757 5.458625l-24.056035 1.269448V303.802641a352.462158 352.462158 0 0 0 176.135871 304.667451l2.792785 1.58681a193.40036 193.40036 0 0 0-22.08839 79.27701 431.612223 431.612223 0 0 1-237.259778-385.404327c0-8.441827 0-16.75671 0.698196-25.00812-0.507779-0.380834-1.015558-0.507779-1.58681-0.888613a194.035083 194.035083 0 0 1 46.715676-355.445361 199.430236 199.430236 0 0 1 50.777909-6.347238 194.606335 194.606335 0 0 1 96.795388 25.896733l1.713755 1.079031a431.040972 431.040972 0 0 1 474.265666 0l1.777227-1.079031a194.288973 194.288973 0 0 1 96.795388-25.896733 198.922457 198.922457 0 0 1 50.397075 6.347238 194.162028 194.162028 0 0 1 137.227298 237.640613zM293.17895 82.98221a115.329325 115.329325 0 0 0-54.967086-77.626727 108.855142 108.855142 0 0 0-46.080952-14.598649 99.651646 99.651646 0 0 0-11.42503-0.634724 109.489865 109.489865 0 0 0-28.879935 3.871815 113.044319 113.044319 0 0 0-68.740594 52.93597 113.234736 113.234736 0 0 0 5.839459 122.501705 111.838344 111.838344 0 0 0 35.671481 32.561334 114.250294 114.250294 0 0 0 56.617368 15.233372 110.886258 110.886258 0 0 0 29.768549-3.935288 61.123908 61.123908 0 0 0 9.266969-3.110146 112.346123 112.346123 0 0 0 59.473625-49.698879 115.519742 115.519742 0 0 0 13.456146-77.499783z m683.661067-36.115787a113.171264 113.171264 0 0 0-68.740593-52.872498 108.855142 108.855142 0 0 0-29.578132-3.871815 103.713878 103.713878 0 0 0-11.869336 0.698196 107.331804 107.331804 0 0 0-45.128867 14.598649 115.075435 115.075435 0 0 0-52.872497 69.43879l-0.571252 1.904172-0.507779 2.158061-0.444306 2.602368-1.713755 31.228413a114.250294 114.250294 0 0 0 14.852539 47.667762 112.79043 112.79043 0 0 0 43.795946 42.716916l3.744871 2.031116 4.062232 1.777227 8.695717 3.364036a89.813426 89.813426 0 0 0 9.203496 2.856258 109.045559 109.045559 0 0 0 28.943408 3.74487 114.250294 114.250294 0 0 0 56.490423-15.1699 112.409595 112.409595 0 0 0 35.925371-32.688278l4.570011-6.347239v-0.571252a114.567656 114.567656 0 0 0 1.142503-115.265852z"  horiz-adv-x="1060" />

    
    <glyph glyph-name="zhuanjia2" unicode="&#58939;" d="M136.734118 759.476706L509.199059 895.397647 901.722353 759.476706l-150.979765-60.416s30.147765-296.869647-120.801882-397.552941c0 0 352.286118-154.322824 271.781647-342.196706 0 0-375.777882-177.814588-795.166118 0 0 0-34.785882 235.279059 295.243294 342.196706 0 0-171.128471 137.547294-130.861176 395.89647L136.734118 759.476706z m350.418823-516.608l-104.357647-252.687059 129.114353-109.899294 126.313412 112.64-110.923294 252.687059 31.292235 46.742588c-46.682353-32.978824-101.616941 0-101.616941 0l30.177882-49.483294zM186.608941 714.721882h24.395294v-191.006117h-24.395294zM174.140235 566.211765H223.472941v-29.816471H174.140235z"  horiz-adv-x="1024" />

    
    <glyph glyph-name="xuewei" unicode="&#58996;" d="M512 358.1L1.1 528.4 512 698.6l510.9-170.3L512 358.1zM152.9 528.4L512 408.6l359.1 119.7L512 648.1 152.9 528.4zM512 178.1c-155.2 0-216.1 78.7-218.6 82.1l-3.3 4.4-36.9 192.6 47.1 9L335 285.5c5.4-5.6 17.4-16.7 37.4-27.8C398.5 243.3 444 226 512 226s113.5 17.2 139.6 31.7c20.1 11.1 32.2 22.3 37.5 27.8L725.3 467l47.1-9.4-38.6-193-3.3-4.4c-2.4-3.4-63.3-82.1-218.5-82.1zM898.5 274.6h-48V401.7L505.1 505.4l13.8 45.9 379.6-113.8zM932.5 69.4h-116l-14.9 148.8c-2.1 20.5 4.7 41.1 18.6 56.4 13.9 15.3 33.6 24.1 54.3 24.1s40.4-8.8 54.3-24.1c13.9-15.3 20.6-35.9 18.6-56.4l-14.9-148.8z m-72.5 48h29l10.6 105.5c0.7 7.2-1.6 14.1-6.4 19.4-4.8 5.3-11.5 8.3-18.7 8.3s-13.9-2.9-18.7-8.3c-4.8-5.3-7.1-12.2-6.4-19.4L860 117.4z"  horiz-adv-x="1024" />

    
    <glyph glyph-name="xueke" unicode="&#58935;" d="M332.8-12.8H102.4c-11.2 0-20.8 9.6-20.8 20.8V747.2c0 11.2 9.6 20.8 20.8 20.8h230.4c11.2 0 20.8-9.6 20.8-20.8v-737.6c0-12.8-9.6-22.4-20.8-22.4zM123.2 30.4h187.2V726.4H123.2v-696zM560-12.8H331.2c-11.2 0-20.8 9.6-20.8 20.8V644.8c0 11.2 9.6 20.8 20.8 20.8H560c11.2 0 20.8-9.6 20.8-20.8v-635.2c1.6-12.8-8-22.4-20.8-22.4z m-208 43.2h187.2v592H352v-592zM332.8 232H102.4c-11.2 0-20.8 9.6-20.8 20.8v76.8c0 11.2 9.6 20.8 20.8 20.8h230.4c11.2 0 20.8-9.6 20.8-20.8v-76.8c0-11.2-9.6-20.8-20.8-20.8zM123.2 273.6h187.2v35.2H123.2v-35.2zM332.8 155.2H102.4c-11.2 0-20.8 9.6-20.8 20.8v76.8c0 11.2 9.6 20.8 20.8 20.8h230.4c11.2 0 20.8-9.6 20.8-20.8V176c0-11.2-9.6-20.8-20.8-20.8zM123.2 196.8h187.2v33.6H123.2v-33.6zM217.6 508.8c-43.2 0-78.4 35.2-78.4 78.4s35.2 78.4 78.4 78.4 78.4-35.2 78.4-78.4-35.2-78.4-78.4-78.4z m0 113.6c-19.2 0-35.2-16-35.2-35.2 0-19.2 16-35.2 35.2-35.2 19.2 0 35.2 16 35.2 35.2 0 19.2-16 35.2-35.2 35.2zM694.4-27.2c-9.6 0-19.2 8-20.8 17.6l-128 726.4c-1.6 4.8 0 11.2 3.2 16 3.2 4.8 8 8 14.4 8l225.6 40c11.2 1.6 22.4-6.4 24-17.6l128-726.4c1.6-4.8 0-11.2-3.2-16-3.2-4.8-8-8-14.4-8l-225.6-40h-3.2zM592 704l120-684.8 184 32L776 736 592 704zM600 516.8c-9.6 0-19.2 8-20.8 17.6l-32 184c-1.6 4.8 0 11.2 3.2 16 3.2 4.8 8 8 14.4 8l225.6 40c6.4 1.6 11.2 0 16-3.2 4.8-3.2 8-8 8-14.4l32-184c1.6-11.2-6.4-22.4-17.6-24l-225.6-40h-3.2zM592 704l25.6-140.8 184 32-25.6 140.8L592 704zM808-6.4c-9.6 0-19.2 8-20.8 17.6l-96 544c-1.6 11.2 6.4 22.4 17.6 24 12.8 1.6 22.4-6.4 24-17.6l96-544c1.6-11.2-6.4-22.4-17.6-24h-3.2z"  horiz-adv-x="1024" />

    
    <glyph glyph-name="xingbie" unicode="&#59286;" d="M345.6 752.64C345.6 796.352 309.952 832 266.24 832c-43.712 0-79.36-35.648-79.36-79.36 0-43.712 35.648-79.36 79.36-79.36 43.776 0 79.36 35.584 79.36 79.36z m64 0a143.424 143.424 0 0 0-143.36-143.36 143.552 143.552 0 0 0-143.36 143.36A143.552 143.552 0 0 0 266.24 896 143.552 143.552 0 0 0 409.6 752.64zM64 167.488h100.8v-231.36H339.2v231.36h100.736v148.48c0.128 122.24-125.184 214.656-244.48 176C117.824 466.816 64 388.352 64 299.968v-132.48z m111.808 385.408c163.2 52.864 328.32-74.048 328.192-236.992v-176.576c0-19.648-15.744-35.84-35.136-35.84H403.264v-217.92c0-7.424-5.888-13.44-13.184-13.44H113.92a13.312 13.312 0 0 0-13.184 13.44v217.92H15.744a15.936 15.936 0 0 0-15.744 16v180.48C0 413.696 69.504 518.4 175.808 552.832z m613.12 238.144c-45.12 0-82.496-38.08-82.496-85.44s37.376-85.44 82.56-85.44c45.12 0 82.56 38.144 82.56 85.44 0 47.36-37.44 85.44-82.56 85.44z m0 64c80.832 0 146.56-67.072 146.56-149.44S869.76 556.16 788.928 556.16c-80.768 0-146.496 67.072-146.496 149.44S708.16 855.04 788.992 855.04zM584.576 80.96h2.368-2.368z m29.44-0.512a6189.056 6189.056 0 0 1 34.816-0.384l45.824-0.384 14.4-43.584A7192.064 7192.064 0 0 0 741.376-64h76.416c9.792 31.424 20.672 65.28 32.448 101.12l14.4 43.776 46.08 0.192 15.36 0.128h14.208l15.68 0.128-69.632 278.784-0.64 2.944a109.12 109.12 0 0 1-105.984 88.128c-50.816 0-95.808-36.8-106.112-88.32l-70.4-282.24 10.688-0.192z m334.464 295.168l74.112-296.704a49.536 49.536 0 0 0-46.464-61.44l-65.024-0.384c-9.28-28.288-23.168-70.976-35.648-111.36a47.424 47.424 0 0 0-45.12-33.728h-101.056a47.744 47.744 0 0 0-45.44 33.92c-12.544 40.32-26.24 81.92-35.584 110.08-28.672 0.256-65.024 1.024-65.024 1.024a48.512 48.512 0 0 0-37.76 19.52 50.368 50.368 0 0 0-8.576 42.368l74.688 299.456c15.488 78.08 86.4 136.832 168.192 136.832 81.728 0 152.64-58.752 168.704-139.584z"  horiz-adv-x="1024" />

    
    <glyph glyph-name="zhichengguanli" unicode="&#59043;" d="M540.213876 432.173612a227.170344 227.170344 0 1 1-227.170345 227.170344 227.413567 227.413567 0 0 1 227.170345-227.170344z m0 392.562029a165.391685 165.391685 0 1 0-165.391686-165.391685 165.634908 165.634908 0 0 0 165.391686 165.391685z m427.342928-729.6692A69.80502 69.80502 0 0 1 928.884336 214.975413l-72.96692 10.458592a12.404376 12.404376 0 0 0-9.485699 7.053469l-32.835114 66.156674a69.80502 69.80502 0 0 1-125.25988 0l-32.835114-65.913451a12.404376 12.404376 0 0 0-9.485699-7.053469l-72.96692-10.458592a69.80502 69.80502 0 0 1-38.672468-119.179302L586.669481 44.719267a12.647599 12.647599 0 0 0 3.648346-11.431484l-12.404376-72.96692a68.832128 68.832128 0 0 1 27.72743-68.102459 69.561797 69.561797 0 0 1 72.96692-5.350908l65.427005 34.294453a12.890823 12.890823 0 0 0 11.91793 0l65.427005-34.294453a71.021135 71.021135 0 0 1 32.591891-8.026361 69.80502 69.80502 0 0 1 68.588905 81.479728l-12.404377 72.96692a12.647599 12.647599 0 0 0 3.648346 11.431484z m-92.911212-10.701814a70.048243 70.048243 0 0 1-19.944291-61.778659l12.404376-72.96692a11.91793 11.91793 0 0 0-5.107684-12.404377 12.404376 12.404376 0 0 0-13.377269 0L783.193719-28.247653a70.291466 70.291466 0 0 1-32.591891 8.026361 71.021135 71.021135 0 0 1-32.591891-8.026361l-65.427004-34.294453a12.404376 12.404376 0 0 0-13.377269 0 11.91793 11.91793 0 0 0-5.107685 12.404377l12.404377 72.96692a70.048243 70.048243 0 0 1-19.944292 61.778659l-53.022628 51.806513a12.647599 12.647599 0 0 0 7.053469 21.646853l72.96692 10.701815A69.075351 69.075351 0 0 1 706.578453 207.192275l32.835114 66.156674a12.161153 12.161153 0 0 0 11.431484 7.296692 12.404376 12.404376 0 0 0 11.431485-7.296692l32.835114-66.156674a69.561797 69.561797 0 0 1 52.536182-38.429244l72.96692-10.458592a12.404376 12.404376 0 0 0 10.458592-8.756031 12.161153 12.161153 0 0 0-3.405123-13.134045zM540.213876 333.66827a542.630662 542.630662 0 0 0 108.234264-10.701815 30.889329 30.889329 0 1 1 12.404377 60.31932 601.247421 601.247421 0 0 1-121.611534 12.161154 561.845284 561.845284 0 0 1-360.94303-125.989549 439.260858 439.260858 0 0 1-111.396165-138.880371A376.995753 376.995753 0 0 1 25.553867-41.138476v-26.99776a30.889329 30.889329 0 0 1 61.535436 4.134792v22.862968C87.332526 166.3308 290.667009 333.66827 540.213876 333.66827zM854.701301-127.969111a75.885597 75.885597 0 0 0-35.510568 8.756031l-65.427005 34.537675a7.296692 7.296692 0 0 1-6.323799 0L682.256147-119.21308a75.885597 75.885597 0 0 0-110.18005 80.263612l12.404377 72.96692a6.3238 6.3238 0 0 1-1.702562 5.837353l-53.022628 51.806514a76.12882 76.12882 0 0 0 42.07759 129.637894l72.96692 10.458592a7.296692 7.296692 0 0 1 5.107685 3.648346L682.256147 301.319602a76.12882 76.12882 0 0 0 136.44814 0L852.512293 234.919705a7.296692 7.296692 0 0 1 5.107685-3.648346l72.96692-10.458592a76.12882 76.12882 0 0 0 42.320813-129.637895l-54.238744-51.320067a6.810246 6.810246 0 0 1-1.702561-5.837353l12.404376-72.96692a76.12882 76.12882 0 0 0-74.669481-89.019643z m-104.099473 56.184529a20.917184 20.917184 0 0 0 8.756031-1.945785l65.670228-34.537675a63.48122 63.48122 0 0 1 92.181542 67.129566l-12.404376 72.96692a18.728176 18.728176 0 0 0 5.350907 16.782392l53.265852 51.320067a63.724443 63.724443 0 0 1-35.510568 108.720711l-72.96692 10.458591a18.971399 18.971399 0 0 0-14.350161 10.458592l-32.835114 66.156674a63.724443 63.724443 0 0 1-114.314841 0l-32.591891-65.913451a18.971399 18.971399 0 0 0-14.350161-10.458591l-72.96692-10.458592a63.724443 63.724443 0 0 1-35.510568-108.720711l53.022629-51.56329a18.728176 18.728176 0 0 0 5.350907-16.782392l-12.404376-72.96692a63.724443 63.724443 0 0 1 92.424765-67.129566l65.427005 34.294452a18.728176 18.728176 0 0 0 8.75603 2.189008z m-693.18574-31.132553a37.213129 37.213129 0 0 0-36.969906 34.294453v27.484206a382.589884 382.589884 0 0 0 42.077591 174.634162 440.720197 440.720197 0 0 0 112.855503 140.582933 567.682638 567.682638 0 0 0 364.8346 127.448886 620.462043 620.462043 0 0 0 121.611533-12.161153 36.726683 36.726683 0 0 0 29.186768-41.104698 36.726683 36.726683 0 0 0-44.023375-31.375776 539.468762 539.468762 0 0 1-107.018149 10.701815C293.09924 327.587693 93.656325 162.196008 93.413102-41.138476v-22.376522a36.726683 36.726683 0 0 0-36.726683-39.402137z m482.554565 492.283487A554.791815 554.791815 0 0 1 182.189522 263.620027a431.720943 431.720943 0 0 1-109.693603-136.691364 371.401623 371.401623 0 0 1-40.618253-170.256146v-26.511315a24.322307 24.322307 0 0 1 42.564037-15.07983 24.322307 24.322307 0 0 1 6.567023 18.24173v24.322307c0 210.14473 206.253161 381.130545 459.20515 381.130545a566.223299 566.223299 0 0 0 109.45038-10.945038 24.322307 24.322307 0 0 1 19.214622 3.891569 24.322307 24.322307 0 0 1 10.215369 16.782392 24.322307 24.322307 0 0 1-19.457846 27.484206 596.382959 596.382959 0 0 1-119.665748 13.377269z m106.774926-460.421265a19.214622 19.214622 0 0 0-11.188261 3.648346 18.728176 18.728176 0 0 0-7.539915 18.484953l12.404376 72.96692a63.237997 63.237997 0 0 1-18.24173 56.427751l-52.779405 51.563291a19.214622 19.214622 0 0 0-5.107685 19.457845 18.971399 18.971399 0 0 0 15.566277 12.890822l72.96692 10.701815a63.237997 63.237997 0 0 1 48.644613 34.780899l32.835114 66.399897a18.24173 18.24173 0 0 0 17.025615 10.458592 18.728176 18.728176 0 0 0 17.025614-10.458592l32.591891-66.399897a64.454113 64.454113 0 0 1 48.644614-35.024122l72.96692-10.458592a18.971399 18.971399 0 0 0 10.458591-32.348667l-52.779405-51.563291a63.237997 63.237997 0 0 1-18.24173-56.427751l12.404376-72.96692a17.998507 17.998507 0 0 0-7.539915-18.728176 18.484953 18.484953 0 0 0-19.944291-1.459339L779.545373-34.32823a64.697336 64.697336 0 0 1-59.346428 0l-64.697336-34.537675a19.457845 19.457845 0 0 0-8.75603-2.189008z m103.856249 56.184528a75.155928 75.155928 0 0 0 35.510568-8.75603L852.512293-57.920867a6.810246 6.810246 0 0 1 7.296692 0 5.837354 5.837354 0 0 1 2.432231 6.567022l-12.404376 72.96692a75.155928 75.155928 0 0 0 21.890076 67.129567l52.779405 51.56329a6.567023 6.567023 0 0 1 1.702562 6.810246 6.080577 6.080577 0 0 1-5.350908 4.621238l-72.96692 10.458592a77.101712 77.101712 0 0 0-57.157421 41.591144l-32.835114 66.399897a6.567023 6.567023 0 0 1-11.91793 0l-32.591891-66.399897a76.372043 76.372043 0 0 0-57.15742-41.347921l-72.96692-10.701815a6.080577 6.080577 0 0 1-5.350908-4.621238 5.350907 5.350907 0 0 1 1.702562-6.567023l52.779405-51.806513a74.912705 74.912705 0 0 0 21.890076-67.129567l-12.404376-72.96692a6.3238 6.3238 0 0 1 2.43223-6.567022 6.567023 6.567023 0 0 1 7.296692 0l65.427005 34.294452a74.183035 74.183035 0 0 0 33.564783 8.75603z m-210.387952 440.96342a233.250921 233.250921 0 1 0 233.250921 233.250921 233.494144 233.494144 0 0 0-233.250921-233.250921z m0 454.097466a220.846545 220.846545 0 1 1 220.846544-220.846545A221.089768 221.089768 0 0 1 540.213876 880.190501z m0-392.56203a171.715485 171.715485 0 1 0 171.472262 171.715485 171.715485 171.715485 0 0 0-171.472262-171.715485z m0 330.783371a159.311109 159.311109 0 1 1 159.311108-159.067886 159.311109 159.311109 0 0 1-159.311108 159.067886z"  horiz-adv-x="1024" />

    
    <glyph glyph-name="xinxi" unicode="&#58948;" d="M25.6 768h972.8v-768H25.6V768z m76.8-76.8v-614.4h819.2V691.2H102.4z m486.4-153.6h230.4v-76.8h-230.4v76.8z m0-230.4h230.4v-76.8h-230.4v76.8z m-243.2 128a64 64 0 1 0 0 128 64 64 0 0 0 0-128z m88.704-204.8a89.6 89.6 0 0 1-177.408 0H179.712a166.4 166.4 0 0 0 331.8272 0h-77.2096z"  horiz-adv-x="1024" />

    
    <glyph glyph-name="quyu1" unicode="&#58888;" d="M815.492778 847.978991c-61.947102 0-119.860439-24.490715-162.935284-68.862127a237.800038 237.800038 0 0 1-66.749203-166.728944c0-113.905834 82.115926-247.788407 131.097355-317.514913a1905.185519 1905.185519 0 0 1 99.067342-125.478897 1822.973551 1822.973551 0 0 1 97.962859 125.430876c49.02945 69.774526 131.241418 203.753142 131.241418 317.562934V613.156256a230.500844 230.500844 0 0 1-66.989308 166.152692A227.139373 227.139373 0 0 1 815.492778 847.978991m0-396.749578a167.257175 167.257175 0 0 0-167.065091 167.065091 167.257175 167.257175 0 0 0 167.065091 167.01707 167.257175 167.257175 0 0 0 167.01707-167.01707 167.257175 167.257175 0 0 0-167.01707-167.065091m-351.753892-36.015757l-268.869631-8.691803-51.574564-180.318889 446.595386-23.866442c-28.716563 35.967736-47.732883 61.755018-58.345526 79.042581a1123.835678 1123.835678 0 0 0-67.805665 133.882574m533.561433-280.490715l-18.247984-23.33821 25.835303-2.401051-7.587319 25.739261M98.347027 79.162634L53.30332-77.385856l419.22341-2.497093 96.810355 127.639843-471.0861 31.357719m633.397111-51.86269l-86.053648-104.493716h410.099418l-13.061714 47.156631-311.032077 57.337085M815.492778 896z m0 0c153.763271 0 279.962484-128.072032 277.705496-283.61208 0-118.851998-75.777153-253.839055-140.029263-345.271056a1750.701932 1750.701932 0 0 0-126.295254-157.797037c-2.256987-4.513975-9.123992-6.818983-11.380979-6.818983-4.610017 0-9.220034 4.513975-11.525042 6.818983-22.906021 27.468017-75.68111 86.918027-126.247233 157.845058-64.25211 91.38398-139.981242 226.371037-139.981242 345.271056C537.739261 767.879947 659.376477 896 815.492778 896z m0-396.749578a119.332208 119.332208 0 0 1 118.996061 119.044082 119.332208 119.332208 0 0 1-118.996061 118.996061 118.323767 118.323767 0 0 1-119.044082-118.996061 119.332208 119.332208 0 0 1 119.044082-119.044082z m-319.147627-34.911274c14.502345-43.31495 51.38248-117.411367 76.161321-157.893078 16.039017-26.17145 57.385106-78.802476 123.942224-157.893078L80.531232 181.447383l71.83943 251.005815a28.332395 28.332395 0 0 0 26.555618 21.609454l317.418871 10.276496z m519.251172-221.857062l55.416245-187.810167-185.217032 17.191521c39.281186 48.213093 77.794035 97.098481 115.346464 146.656162 2.40105 9.50816 9.700244 14.358282 14.454323 23.962484z m-952.736822-112.849372l598.58188-39.857437-165.048209-217.679235-0.048021-0.096042-464.939411 2.785219c-9.652223 0-19.352467 2.40105-24.202589 12.005252-7.203151 4.706059-7.203151 14.406303-7.203151 24.106546l62.859501 218.735697z m649.724254-49.941849l368.321141-67.949728 26.65166-96.09004h-0.048021c0-2.40105 2.40105-7.203151 2.40105-9.604201a31.837929 31.837929 0 0 0-31.357719-31.261677H543.933971L712.631776 79.642844z"  horiz-adv-x="1109" />

    
    <glyph glyph-name="queding" unicode="&#58934;" d="M881.985296 623.263275c-13.10616 13.098935-35.929951 13.113385-49.050561-0.01445L420.972158 210.310873 187.192662 444.083144c-13.10616 13.10616-35.929951 13.098935-49.007211 0a34.694475 34.694475 0 0 1 0-49.021661l258.293939-258.293939a34.3838 34.3838 0 0 1 24.528893-10.187258 34.405475 34.405475 0 0 1 24.499993 10.165583l0.007225 0.007225 0.01445 0.007225 436.455345 437.48852a34.7306 34.7306 0 0 1 0 49.014436z"  horiz-adv-x="1024" />

    
    <glyph glyph-name="jiaose" unicode="&#58958;" d="M858.613025 790.324591h-207.652179a146.888819 146.888819 0 0 1-280.568212 0H162.212078A100.920016 100.920016 0 0 1 62.877193 690.989706v-716.479275a101.448393 101.448393 0 0 1 99.334885-102.505147h696.400947A101.448393 101.448393 0 0 1 961.118172-25.489569V690.989706A101.448393 101.448393 0 0 1 858.613025 790.324591zM510.412551 790.324591a52.837705 52.837705 0 1 0-49.667442-52.837705 52.837705 52.837705 0 0 0 49.667442 52.837705z m0-204.481917a153.757721 153.757721 0 1 0-149.002327-158.513114v7.397278a151.644212 151.644212 0 0 0 149.002327 153.757721z m298.533032-613.974128H211.87952v73.972786c0 102.505147 199.198147 158.513114 298.533031 158.513114s298.533031-56.007967 298.533032-158.513114z"  horiz-adv-x="1024" />

    
    <glyph glyph-name="ziyuan1" unicode="&#58886;" d="M810.666667 810.666667H213.333333a85.333333 85.333333 0 0 1-85.333333-85.333334v-682.666666a85.333333 85.333333 0 0 1 85.333333-85.333334h597.333334a85.333333 85.333333 0 0 1 85.333333 85.333334V725.333333a85.333333 85.333333 0 0 1-85.333333 85.333334zM320 128A64 64 0 1 0 384 192 64 64 0 0 0 320 128z m0 213.333333A64 64 0 1 0 384 405.333333 64 64 0 0 0 320 341.333333z m0 213.333334A64 64 0 1 0 384 618.666667 64 64 0 0 0 320 554.666667zM768 170.666667h-341.333333v42.666666h341.333333z m0 213.333333h-341.333333v42.666667h341.333333z m0 213.333333h-341.333333V640h341.333333z"  horiz-adv-x="1024" />

    
    <glyph glyph-name="quanbu" unicode="&#58887;" d="M80.457661 895.999437A81.301054 81.301054 0 0 1 0.000563 815.542339V502.1535a81.301054 81.301054 0 0 1 80.457098-81.582373H393.8465a81.301054 81.301054 0 0 1 81.582373 81.582373V815.542339A81.301054 81.301054 0 0 1 393.8465 895.999437z m0-548.571127A81.301054 81.301054 0 0 1 0.000563 266.97121200000004v-314.514113a81.301054 81.301054 0 0 1 80.457098-80.457099H393.8465a81.301054 81.301054 0 0 1 80.457099 80.457099V266.97121200000004A81.301054 81.301054 0 0 1 393.8465 347.42831zM629.028788 895.999437a81.301054 81.301054 0 0 1-80.457098-80.457098V502.1535a81.301054 81.301054 0 0 1 80.457098-80.457099h314.514113A81.301054 81.301054 0 0 1 1024 502.1535V815.542339A81.301054 81.301054 0 0 1 943.542901 895.999437z m0-548.571127a81.301054 81.301054 0 0 1-80.457098-80.457098v-314.514113a81.301054 81.301054 0 0 1 80.457098-80.457099h314.514113a81.301054 81.301054 0 0 1 80.457099 80.457099V266.97121200000004a81.301054 81.301054 0 0 1-80.457099 80.457098z"  horiz-adv-x="1024" />

    
    <glyph glyph-name="bumen" unicode="&#58933;" d="M930.362 49.709h-22.458V563.458c0 25.461-20.551 46.119-45.894 46.119H677.4V730.166c0 25.467-20.561 46.12-45.902 46.12H162.635c-25.334 0-45.893-20.653-45.893-46.12V49.71H93.658c-15.954 0-28.864-12.971-28.864-28.999 0-16.027 12.911-28.996 28.864-28.996h836.704c15.943 0 28.844 12.969 28.844 28.996 0 16.028-12.89 28.998-28.844 28.998zM652.38 535.872c11.659-2.69 27.485-3.604 40.66-9.893 31.965-15.026 48.692-49.668 45.317-86.517a18.157 18.157 0 0 1 1.477-10.799c10.466-15.026 8.237-30.052 0.587-45.078-6.259-12.421-13.135-24.347-19.122-36.925-14.662-31.548-39.183-48.057-73.242-48.678-34.079-0.625-59.49 14.405-75.023 45.54-5.975 12.007-13.195 23.726-19.445 35.767-8.988 16.192-9.272 31.843 1.809 47.434 2.398 3.603 1.772 9.6 1.478 14.739-3.581 42.059 19.415 77.488 59.488 88.913 10.31 3.087 21.187 3.377 36.016 5.497z m-13.098-269.408c-2.718 0.003-4.919 2.222-4.929 4.954v9.909c0.009 2.74 2.211 4.952 4.929 4.958h14.8c2.719-0.006 4.919-2.219 4.929-4.958v-9.909c-0.009-2.732-2.209-4.951-4.929-4.954h-0.822l11.513-34.68-11.044-33.271c-2.26-6.796-11.825-6.796-14.094 0l-11.044 33.271 11.513 34.68h-0.822zM345.103 152.035H236.13c-15.954 0-28.855 12.969-28.855 28.998 0 16.027 12.902 28.996 28.855 28.996h108.982c15.954 0 28.864-12.969 28.864-28.996-0.008-16.029-12.919-28.998-28.873-28.998z m0 202.157H236.13c-15.954 0-28.855 12.969-28.855 28.999 0 16.032 12.902 29.001 28.855 29.001h108.982c15.954 0 28.864-12.969 28.864-29.001-0.008-16.04-12.919-28.999-28.873-28.999z m0 202.1H236.13c-15.954 0-28.855 12.969-28.855 28.988 0 16.034 12.902 29.003 28.855 29.003h108.982c15.954 0 28.864-12.969 28.864-29.003-0.008-16.019-12.919-28.988-28.873-28.988z m77.604 28.988c0 16.034 12.911 29.003 28.855 29.003h108.952c15.953 0 28.855-12.969 28.855-29.003 0-16.019-12.902-28.988-28.855-28.988H451.562c-15.944 0-28.855 12.969-28.855 28.988z m413.648-391.388c0-8.136-1.065-16.241-3.336-24.053-2.484-8.586-6.347-16.231-17.89-18.659H472.758c-6.328 2.244-10.564 6.262-13.44 11.306-2.592 4.522-3.854 9.688-3.884 14.915l-0.028 6.614a31.41 31.41 0 0 0 1.086 8.315c2.738 10.138 5.028 20.43 8.743 30.269 4.755 14.518 15.884 26.031 30.195 31.217 28.102 9.931 56.809 18.629 85.478 27.95 0.91 0.287 1.809-0.297 3.297-0.297-4.128-47.473 20.598-79.31 56.809-104.516a10.942 10.942 0 0 1 9.84-1.536c28.844 19.252 51.752 43.261 58.295 79.024a275.775 275.775 0 0 1 1.525 28.974c20.022-5.707 39.458-10.838 58.874-16.559 6.876-1.826 13.126-5.134 20.021-7.533 25.119-9.316 39.458-28.234 45.308-54.065l0.009-0.041a42.187 42.187 0 0 0 1.477-11.053v-0.27h-0.008z m0 0"  horiz-adv-x="1024" />

    
    <glyph glyph-name="yonghu1" unicode="&#59122;" d="M293.9 601.16c0-120 97.28-217.29 217.29-217.29s217.29 97.28 217.29 217.29S631.19 818.45 511.19 818.45 293.9 721.16 293.9 601.16zM741.8 374.6c-21.73 15.64-50.41 15.93-71.56-0.58-44.62-34.77-99.66-55.05-159.05-55.05s-114.44 20.57-159.05 55.05c-21.15 16.51-49.83 16.22-71.56 0.58C170.77 296.38 98.34 164.56 98.34 14.49v-2.03c0-34.77 26.94-63.16 60.26-63.16h705.46c33.03 0 59.97 28.1 60.26 63.16v2.03c-0.29 150.07-72.72 281.89-182.52 360.11z"  horiz-adv-x="1024" />

    
    <glyph glyph-name="pingshen-" unicode="&#58883;" d="M225.28 618.155A200.704 200.704 0 1 1 425.984 818.859 200.704 200.704 0 0 1 225.28 618.155m340.992-635.563L465.92 82.944a80.896 80.896 0 0 0 0 117.077l40.277 40.278a73.387 73.387 0 0 0 60.075 23.552l68.267 68.266a42.325 42.325 0 0 0 3.413 20.139 194.901 194.901 0 0 1-107.179 50.176H322.22a161.45 161.45 0 0 1-107.179-52.565c-60.075-53.59-143.701-153.942-136.533-277.504s143.701-123.904 347.818-123.904c83.627 0 187.392 6.826 214.016 9.898a86.357 86.357 0 0 0-73.728 23.552zM934.23 29.355L819.2 143.019l-40.277 40.277 20.138 20.139a34.133 34.133 0 0 1 16.726-6.827h3.413a29.013 29.013 0 0 1 20.139 9.899l41.301 40.96a34.133 34.133 0 0 1 0 46.762l-61.44 59.734-40.277 40.277a32.427 32.427 0 0 1-46.763 0l-40.277-40.277a30.379 30.379 0 0 1-3.414-40.278l-9.898-6.826-95.574-96.939a34.133 34.133 0 0 1-16.725 6.827 30.379 30.379 0 0 1-23.552-9.899l-40.277-40.277a34.133 34.133 0 0 1 0-46.763l100.352-100.352a32.427 32.427 0 0 1 46.762 0l40.278 40.277a30.379 30.379 0 0 1 3.413 40.278l20.139 16.725 57.002-57.003 48.811-51.2 43.35-43.349a49.835 49.835 0 0 1 30.037-13.312 36.181 36.181 0 0 1 30.037 13.312l6.827 6.827a36.181 36.181 0 0 1 3.413 57.002z"  horiz-adv-x="1024" />

    
    <glyph glyph-name="zhuanjia1" unicode="&#58932;" d="M249.14 646.554l263.09 96 277.325-96-106.65-42.676s21.3-209.74-85.35-280.857c0 0 248.883-109.03 192-241.741 0 0-265.472-125.62-561.74 0 0 0-24.577 166.195 208.563 241.74 0 0-120.884 97.178-92.442 279.68l-94.797 43.854zM496.69 281.6l-73.728-178.534 91.213-77.62 89.242 79.565-78.362 178.535 22.093 32.998c-32.973-23.296-71.783 0-71.783 0l21.325-34.944zM284.365 614.938h17.229V480h-17.23zM275.558 510.003H310.4v-21.043h-34.842z"  horiz-adv-x="1024" />

    
    <glyph glyph-name="tubiao" unicode="&#58931;" d="M896-32 768-32C732.656-32 704-3.344 704 32L704 480C704 515.344 732.656 544 768 544L896 544C931.344 544 960 515.344 960 480L960 32C960-3.344 931.344-32 896-32ZM896 480 768 480 768 32 896 32 896 480ZM576-32 448-32C412.656-32 384-3.344 384 32L384 736C384 771.344 412.656 800 448 800L576 800C611.344 800 640 771.344 640 736L640 32C640-3.344 611.344-32 576-32ZM576 736 448 736 448 32 576 32 576 736ZM256-32 128-32C92.656-32 64-3.344 64 32L64 352C64 387.344 92.656 416 128 416L256 416C291.344 416 320 387.344 320 352L320 32C320-3.344 291.344-32 256-32ZM256 352 128 352 128 32 256 32 256 352Z"  horiz-adv-x="1024" />

    
    <glyph glyph-name="mingxi" unicode="&#58969;" d="M147.968 604.16h749.568a66.048 66.048 0 0 1 40.448 56.32 43.52 43.52 0 0 1-40.448 46.08H147.968a43.52 43.52 0 0 1-40.448-46.08 51.2 51.2 0 0 1 11.776-32.256c7.68-8.704 17.92-13.312 28.672-24.064zM388.096 450.56H147.968a40.96 40.96 0 0 1-40.448-44.032 70.656 70.656 0 0 1 40.448-58.368h240.128a71.68 71.68 0 0 1 40.448 58.368 40.96 40.96 0 0 1-40.448 44.032zM345.6 194.56H147.968a37.888 37.888 0 0 1-40.448-41.984 76.8 76.8 0 0 1 40.448-60.416h197.632a77.824 77.824 0 0 1 40.448 60.416 38.4 38.4 0 0 1-40.448 41.984zM828.928 203.776a204.8 204.8 0 0 1 27.648 102.4 186.368 186.368 0 0 1-175.104 194.56 186.368 186.368 0 0 1-175.616-194.56 185.856 185.856 0 0 1 175.616-194.56 158.208 158.208 0 0 1 89.6 28.672l87.552-97.28a38.4 38.4 0 0 1 57.344 0 47.616 47.616 0 0 1 11.776 31.744 46.08 46.08 0 0 1-11.776 31.744z m-53.76 102.4a102.4 102.4 0 0 0-93.696-102.4 102.4 102.4 0 0 0-94.208 102.4 99.328 99.328 0 0 0 94.208 102.4 99.328 99.328 0 0 0 93.696-101.376z"  horiz-adv-x="1024" />

    
    <glyph glyph-name="wenjian1" unicode="&#58880;" d="M866.987 636.587c0 6.827 0 6.827 0 0v13.653l-163.84 143.36c-6.827 6.827-13.653 6.827-20.48 6.827h-471.04c-34.133 6.827-54.613-6.827-54.613-40.96v-750.933c0-34.133 13.653-47.787 47.787-47.787h607.573c34.133 0 47.787 13.653 47.787 47.787l6.827 628.053zM716.8 165.54700000000003h-409.6c-13.653 0-27.307 13.653-27.307 27.307s13.653 27.307 27.307 27.307h409.6c13.653 0 27.307-13.653 27.307-27.307 0-20.48-13.653-27.307-27.307-27.307zM716.8 308.90700000000004h-409.6c-13.653 0-27.307 13.653-27.307 27.307s13.653 27.307 27.307 27.307h409.6c13.653 0 27.307-13.653 27.307-27.307s-13.653-27.307-27.307-27.307zM716.8 465.92h-409.6c-13.653 0-27.307 13.653-27.307 27.307s13.653 27.307 27.307 27.307h409.6c13.653 0 27.307-13.653 27.307-27.307s-13.653-27.307-27.307-27.307zM703.147 663.893v61.44l61.44-54.613h-61.44v-6.827z"  horiz-adv-x="1024" />

    
    <glyph glyph-name="wenjianjia" unicode="&#58881;" d="M919.932121 693.113535h-287.935353c0 66.120404-53.566061 119.686465-119.686465 119.686465h-478.90101V119.66060600000003h957.905454V622.8169700000001c-0.607677 38.904242-32.336162 70.296566-71.382626 70.296565z m-48.420202-413.633939H153.095758V638.551919h718.416161v-359.072323zM990.474343 36.408889000000045V501.449697c0 32.995556-26.854141 59.836768-59.849697 59.836768H92.534949c-32.982626 0-59.849697-26.841212-59.849696-59.836768v-464.898586c0-40.701414 32.995556-73.839192 73.839191-73.839192h810.25293c40.714343-0.142222 73.69697 32.995556 73.696969 73.69697z m0 0"  horiz-adv-x="1024" />

    
    <glyph glyph-name="icon_folder" unicode="&#58882;" d="M1334.635105 464.04819l-267.394169-543.939317a87.094284 87.094284 0 0 0-71.256051-47.994646H138.960497a30.108641 30.108641 0 0 0-26.685023 47.994646l267.394169 543.939317a87.094284 87.094284 0 0 0 71.256051 47.994645h857.024388a30.108641 30.108641 0 0 0 26.685023-47.994645zM1119.875064 608.0321260000001H322.524018L0-63.892912000000024V832.007139a63.992861 63.992861 0 0 0 63.992861 63.992861h415.953595a63.992861 63.992861 0 0 0 63.992861-63.992861v-63.992861h575.935747a63.992861 63.992861 0 0 0 63.992861-63.99286v-31.996431a63.992861 63.992861 0 0 0-63.992861-63.992861z"  horiz-adv-x="1340" />

    
    <glyph glyph-name="tupian" unicode="&#58929;" d="M780.8 696H244.8c-49.6 0-92.8-43.2-92.8-94.4v-273.6c0-12.8 11.2-24 24-24s24 11.2 24 24V601.6c0 22.4 22.4 46.4 44.8 46.4h536c22.4 0 44.8-22.4 44.8-46.4v-40L548.8 294.4l-144 100.8c-1.6 0-1.6 1.6-3.2 1.6-1.6 1.6-4.8 3.2-8 3.2h-1.6c-3.2 0-4.8 0-8-1.6h-1.6c-3.2-1.6-4.8-3.2-8-4.8L160 201.6l-1.6-1.6-1.6-1.6-1.6-1.6s0-1.6-1.6-1.6v-25.6c0-49.6 43.2-94.4 92.8-94.4h536c49.6 0 92.8 43.2 92.8 94.4v432c-3.2 51.2-46.4 94.4-94.4 94.4z m0-576H244.8c-22.4 0-44.8 22.4-44.8 46.4v8l193.6 172.8 144-100.8c4.8-3.2 9.6-4.8 14.4-4.8 6.4 0 12.8 3.2 16 6.4l256 248v-329.6c0-24-22.4-46.4-43.2-46.4zM392 528c0 40-32 72-72 72s-72-32-72-72 32-72 72-72 72 32 72 72z m-96 0c0 12.8 11.2 24 24 24s24-11.2 24-24-11.2-24-24-24-24 11.2-24 24z"  horiz-adv-x="1024" />

    
    <glyph glyph-name="xiazai" unicode="&#58930;" d="M310.3488 2.2272a35.2 35.2 0 0 0 30.2592-35.3792c0-20.6336-17.664-36.9664-37.6832-36.9664H93.184c-49.408 0-93.056 41.9328-93.056 90.5216V804.608c0 48.4864 43.52 91.264 93.056 91.264h743.808c49.408 0 93.056-42.6496 93.056-91.264v-163.6096c-0.8704-19.7888-18.5344-35.2512-37.7088-35.2512-19.3024 0-34.304 13.2352-36.8128 30.4128V779.8784c0 25.6-20.1728 44.3904-46.0288 44.3904H116.6592c-24.3456 0-44.3904-18.944-44.3904-44.3904v-734.2336c0-23.8848 20.1728-43.52 44.3904-43.52h193.6896v0.1024z m379.8528 520.2944c183.6032 0 333.6704-144.7168 333.6704-324.7616 0-180.0704-150.1952-325.632-333.6704-325.632-185.2672 0-333.696 145.5616-333.696 325.632 0 180.1728 148.3008 324.7616 333.696 324.7616z m0-592.64c150.9376 0 274.9184 119.9616 274.9184 267.9808 0 147.2-124.1088 267.264-275.0464 267.264-151.8336 0-275.9424-120.064-275.9424-267.264 0.128-148.0192 124.2368-267.9808 276.0704-267.9808zM363.1872 540.672c12.6208 0 22.7072-9.0368 22.7072-21.4016s-10.0864-22.272-22.7072-22.272H165.1968a22.4 22.4 0 0 0-22.6816 22.272c0 12.3648 10.0864 21.4016 22.6816 21.4016h197.9904z m270.7712 68.2496c0-12.3648-10.112-22.272-22.7072-22.272H165.1968a22.4 22.4 0 0 0-22.6816 22.272 23.04 23.04 0 0 0 22.6816 23.0144h446.0544a23.04 23.04 0 0 0 22.7072-23.0144z m153.344 88.8064c0-12.3648-10.0864-21.4016-22.7072-21.4016H165.1968c-12.5952 0-22.6816 9.0368-22.6816 21.4016s10.0864 22.272 22.6816 22.272h599.5264a22.528 22.528 0 0 0 22.5792-22.272z m-74.0352-678.3488a23.808 23.808 0 0 0-37.7088 0L579.0976 128c-5.9392 6.5536-8.448 15.5904-7.5776 26.3424a19.1232 19.1232 0 0 0 19.3024 17.3056h62.0288v101.0432c0 12.3648 8.448 20.6592 21.0688 20.6592h40.2432c12.5952 0 21.0432-8.2944 21.0432-20.6592v-101.0432h62.9248c9.216 0 17.664-7.424 20.1984-17.3056 0.8704-9.8816-2.5344-18.944-9.216-26.3424l-95.8464-108.5952zM674.176 333.568c-12.6208 0-21.0688 8.2944-21.0688 20.6592 0 10.752 8.448 20.6592 21.0688 20.6592h40.2176c12.6208 0 21.0688-9.9072 21.0688-20.6592 0-12.3648-8.448-20.6592-21.0688-20.6592h-40.2176z"  horiz-adv-x="1024" />

    
    <glyph glyph-name="gonggao" unicode="&#58885;" d="M921.9 427.4H749.6c-9.4 0-18.4-3.8-25-10.5-6.6-6.7-10.3-15.7-10.3-25.1v-11.1c0-19.6 15.9-35.5 35.4-35.5h172.2c19.5 0 35.3 15.9 35.3 35.5v11.1c0 9.4-3.7 18.4-10.3 25.1-6.6 6.7-15.6 10.5-25 10.5zM522.4 732.1c-53.6-42.6-165.7-102.3-246.3-159.8h-0.1c-0.9-0.6-1.8-3.8-2.8-4.3-9.5-5.4-13.8-20.1-65.6-20.1h-101c-26 0-42-12.2-42-39.6V265c0-27.4 14.7-40.9 42-40.9H208c51.5-0.1 55.7-14.8 65.2-20.1 0.9-0.5 1.8-3.7 2.7-4.3h0.1c78.2-57.5 191-121.8 246.4-162.7 16.7-12.3 72.1-33.9 72.1 42.1v614c0 76.1-55.9 51.8-72.1 39z m159-167.8c9.2-16.1 27.3-20.2 40.5-9l141.5 119.3c13.3 11.1 16.5 33.2 7.4 49.4l-5.2 9.1c-9.1 16.1-27.3 20.1-40.5 9L683.6 622.8c-13.2-11.2-16.5-33.2-7.4-49.4l5.2-9.1z m40.4-347.4c-13.2 11.1-31.3 7-40.4-9l-5.2-9.1c-9.1-16.1-5.8-38.2 7.4-49.4L825.1 30c13.2-11.1 31.3-7.1 40.4 9l5.2 9.1c9.1 16.1 5.8 38.2-7.4 49.4L721.8 216.9z m0 0"  horiz-adv-x="1024" />

    
    <glyph glyph-name="left-copy" unicode="&#59952;" d="M616.192 129.27999999999997l46.336 46.336L454.093 384 662.528 592.384l-46.336 46.336-208.384-208.384L361.472 384l46.336-46.336z"  horiz-adv-x="1024" />

    
    <glyph glyph-name="xia-copy" unicode="&#59949;" d="M766.72 488.192l-46.336 46.336L512 326.09299999999996 303.616 534.528l-46.336-46.336 208.384-208.384L512 233.47199999999998l46.336 46.336z"  horiz-adv-x="1024" />

    
    <glyph glyph-name="shang-copy" unicode="&#59950;" d="M257.28 279.808l46.336-46.336L512 441.907 720.384 233.47199999999998l46.336 46.336-208.384 208.384L512 534.528l-46.336-46.336z"  horiz-adv-x="1024" />

    
    <glyph glyph-name="you" unicode="&#59079;" d="M407.808 638.72l-46.336-46.336L569.907 384 361.472 175.616l46.336-46.336 208.384 208.384L662.528 384l-46.336 46.336z"  horiz-adv-x="1024" />

    
    <glyph glyph-name="wulumuqishigongandashujuguanlipingtai-ico-" unicode="&#59371;" d="M780.16 673.92l-38.4-38.4a368 368 0 0 0 131.2-279.04A355.84 355.84 0 1 0 304 640l-38.4 38.4a396.8 396.8 0 0 1-158.72-320 413.44 413.44 0 0 1 410.88-410.88 413.44 413.44 0 0 1 410.24 408.96 426.88 426.88 0 0 1-147.84 320z m0 0M490.24 821.76h55.04v-492.8h-55.04z"  horiz-adv-x="1024" />

    
    <glyph glyph-name="yunyingguanli" unicode="&#58928;" d="M979.478261 94.608696a133.565217 133.565217 0 1 0 133.565217 133.565217 133.565217 133.565217 0 0 0-133.565217-133.565217z m-54.539131 302.258087a356.173913 356.173913 0 0 1-211.656347 250.078608 176.306087 176.306087 0 0 1 40.069565 80.139131 445.44 445.44 0 0 0 261.520695-324.207305A177.508174 177.508174 0 0 1 979.478261 406.26087a175.682783 175.682783 0 0 1-54.539131-9.394087zM578.782609 628.869565a133.565217 133.565217 0 1 0 133.565217 133.565218 133.565217 133.565217 0 0 0-133.565217-133.565218z m-346.201044-232.002782A175.504696 175.504696 0 0 1 178.086957 406.26087a177.374609 177.374609 0 0 1-35.30574-3.56174A445.44 445.44 0 0 0 404.257391 726.817391a176.528696 176.528696 0 0 1 40.069566-80.13913 356.173913 356.173913 0 0 1-211.789914-249.811478zM311.652174 228.173913a133.565217 133.565217 0 1 0-133.565217 133.565217 133.565217 133.565217 0 0 0 133.565217-133.565217z m267.130435-267.130435a355.283478 355.283478 0 0 1 280.175304 136.770783 176.929391 176.929391 0 0 1 79.337739-42.429218 444.14887 444.14887 0 0 0-718.981565 0 176.88487 176.88487 0 0 1 79.337739 42.429218A355.149913 355.149913 0 0 1 578.782609-38.956522z"  horiz-adv-x="1157" />

    
    <glyph glyph-name="renwubushu" unicode="&#59023;" d="M976.749714 82.651429H632.100571c5.851429-13.897143 9.874286-25.819429 9.874286-39.789715 0-13.897143-3.876571-27.794286-9.874286-39.789714h344.649143c25.6 0 43.227429 17.846857 43.227429 39.789714 0 21.942857-17.700571 39.789714-43.227429 39.789715z m-464.822857 59.611428c-53.174857 0-98.450286-45.714286-98.450286-99.401143s45.348571-99.474286 98.450286-99.474285c53.174857 0 98.450286 45.787429 98.450286 99.474285 0 53.686857-45.275429 99.474286-98.450286 99.474286z m-39.350857 19.894857h78.774857V241.737143H472.502857v-79.579429zM43.154286 82.651429c-23.552 0-43.227429-17.846857-43.227429-39.789715 0-21.942857 17.700571-39.789714 43.300572-39.789714h350.500571a91.355429 91.355429 0 0 0-9.874286 39.789714c0 13.897143 3.876571 27.867429 9.874286 39.789715H43.300571zM964.900571 896H59.099429C25.6 896 0 866.084571 0 834.340571v-153.161142c0-35.84 27.574857-61.659429 59.099429-61.659429h905.801142c31.451429 0 59.099429 25.819429 59.099429 61.659429V834.340571C1023.853714 870.180571 996.425143 896 964.754286 896zM630.052571 758.857143c0-21.942857-17.627429-39.789714-39.350857-39.789714a39.643429 39.643429 0 0 0-39.350857 39.789714c0 21.942857 17.627429 39.716571 39.350857 39.716571 21.723429 0 41.398857-19.894857 39.350857-39.716571z m98.450286-39.789714a39.643429 39.643429 0 0 0-39.350857 39.789714c0 21.942857 17.700571 39.716571 39.350857 39.716571 21.723429 0 39.424-19.894857 39.424-39.716571 0-21.942857-17.700571-39.789714-39.424-39.789714z m98.450286 0h78.774857V798.573714h-78.774857v-79.506285z m137.874286-180.955429H59.099429c-33.499429 0-59.099429-29.988571-59.099429-61.732571V323.291429c0-35.84 27.574857-61.659429 59.099429-61.659429h905.801142c31.451429 0 59.099429 29.842286 59.099429 61.659429V476.379429c-0.146286 35.84-27.574857 61.732571-59.245714 61.732571zM630.052571 400.822857c0-21.942857-17.627429-39.789714-39.350857-39.789714a39.643429 39.643429 0 0 0-39.350857 39.789714c0 21.942857 17.627429 39.716571 39.350857 39.716572 21.723429 0 41.398857-17.846857 39.350857-39.716572z m98.450286-39.789714a39.643429 39.643429 0 0 0-39.350857 39.789714c0 21.942857 17.700571 39.716571 39.350857 39.716572a39.716571 39.716571 0 1 0 0-79.506286z m98.450286 0h78.774857V440.539429h-78.774857v-79.506286z"  horiz-adv-x="1024" />

    
    <glyph glyph-name="zhuanjiaku" unicode="&#58884;" d="M981.919798 709.8125V849.45h-512l-46.5375 46.55h-418.9125v-1024h1023.9875V709.8125h-46.5375zM674.569798 344.92499999999995c-15.45 1.0125-32.975 1.55-52.5375 1.55H475.257298c-7.2125-19.575-12.3625-33.9875-15.45-43.2625h168.4125v-26.2625c-7.2125-2.075-19.85-12.3625-37.85-30.9-18.0375-18.5375-32.7125-35.025-44.0375-49.4375 26.775-10.3125 43.7625-16.4625 50.9875-18.5375l-15.45-30.9c-19.575 10.3125-70.5625 30.9-152.9625 61.8 5.1375 12.3625 8.7375 22.1375 10.8125 29.35 19.55-7.2125 45.825-17 78.8-29.35 16.4625 17.5 35 39.6375 55.625 66.4375h-111.25c-16.4875-1.0375-28.3375-2.5875-35.5375-4.6375 0 6.175-4.125 15.9625-12.3625 29.3625 10.2875 5.1375 19.55 20.5875 27.8125 46.35h-60.2625c-19.575 0-37.0875-0.525-52.5375-1.55v30.9c15.45-1.0375 32.95-1.55 52.5375-1.55h69.525l13.9 46.35h-58.7125c-16.4875 0-30.4-0.525-41.7125-1.55v29.35c11.325-1.0375 25.225-1.55 41.7125-1.55h64.8875c7.2 24.725 11.825 45.3125 13.9 61.8 19.55-3.0875 30.9-4.6375 33.9875-4.6375-5.1625-15.45-10.8125-34.525-17-57.1625h83.4375c14.4125 0 31.9125 0.5125 52.5375 1.55v-29.35c-14.4375 1.0125-31.9375 1.55-52.5375 1.55h-89.6125l-13.9-46.35H620.494798c15.45 0 33.4625 0.5125 54.075 1.55v-30.9125z m214.275 364.9H609.569798l-46.55 46.5375h325.825v-46.5375z"  horiz-adv-x="1059" />

    
    <glyph glyph-name="jijin" unicode="&#58926;" d="M907.952984 618.124272 116.352985 618.124272c-28.103058 0-51.056839-22.8668-51.056839-51.14382l0-497.739205c0-28.365025 22.8668-51.14382 51.056839-51.14382l791.511995 0c28.103058 0 51.056839 22.8668 51.056839 51.14382L958.921819 566.980451C959.009823 595.345476 936.143023 618.124272 907.952984 618.124272M263.065418 464.953753l-101.939717 0c-17.717524 0-32.030507 14.139022-32.030507 31.943526 0 17.629519 14.312984 31.943526 32.030507 31.943526l101.939717 0c17.717524 0 32.030507-14.139022 32.030507-31.943526C295.095925 479.266737 280.782941 464.953753 263.065418 464.953753M518.5246 107.467873c-95.218642 0-172.371836 94.345762-172.371836 210.685443s77.152171 210.685443 172.371836 210.685443c95.218642 0 172.371836-94.345762 172.371836-210.685443S613.743242 107.467873 518.5246 107.467873M863.180268 107.467873l-101.938694 0c-17.717524 0-32.030507 14.139022-32.030507 31.943526 0 17.629519 14.312984 31.943526 32.030507 31.943526l101.938694 0c17.717524 0 32.030507-14.139022 32.030507-31.943526C895.210775 121.78188 880.896768 107.467873 863.180268 107.467873M199.35335 656.438902l638.341476 0c24.699542 0 44.685735 19.986193 44.685735 44.685735 0 24.611537-19.986193 44.685735-44.685735 44.685735L199.35335 745.810373c-24.699542 0-44.685735-19.986193-44.685735-44.685735C154.667615 676.512077 174.653809 656.438902 199.35335 656.438902M595.240843 350.009861c10.56052 0 19.026332 8.552793 19.026332 19.113313 0 10.647501-8.552793 19.113313-19.026332 19.113313l-30.197766 0 22.8668 22.8668c7.505951 7.505951 7.505951 19.637246-0.086981 27.318182-7.505951 7.505951-19.812231 7.505951-27.318182 0.086981l-34.736129-34.736129c-0.435928-0.435928-0.785899-0.87288-1.221828-1.308809-0.523933 0.785899-1.134847 1.483794-1.832741 2.181689l-34.212196 34.212196c-7.330966 7.330966-19.37528 7.330966-26.794249-0.086981-7.505951-7.505951-7.41897-19.37528-0.086981-26.794249l23.651676-23.651676-43.463907 0c-10.56052 0-19.026332-8.552793-19.026332-19.113313 0-10.647501 8.552793-19.113313 19.026332-19.113313l57.514925 0 0-38.314631-57.514925 0c-10.56052 0-19.113313-8.552793-19.113313-19.113313 0-10.647501 8.552793-19.113313 19.026332-19.113313l57.515948 0 0-10.909467 0-46.518476c0-10.735505 8.552793-19.288299 19.113313-19.288299 10.647501 0 19.113313 8.552793 19.113313 19.113313L537.463951 273.468604l57.515948 0c10.56052 0 19.026332 8.552793 19.026332 19.113313 0 10.647501-8.552793 19.113313-19.026332 19.113313l-37.005822 0-20.597107 0 0 38.314631L595.240843 350.009861z"  horiz-adv-x="1024" />

    
    <glyph glyph-name="jigou" unicode="&#59948;" d="M846.769231 462.769231v-433.230769h98.461538v-78.769231H78.769231v78.769231h98.461538V462.769231H78.769231v78.769231h103.660307C210.313846 698.249846 347.254154 817.230769 512 817.230769c164.726154 0 301.686154-118.980923 329.570462-275.692307H945.230769v-78.769231h-98.461538z m-512-59.076923v-315.076923h78.769231V403.692308h-78.769231z m256 0v-315.076923h78.769231V403.692308h-78.769231z"  horiz-adv-x="1024" />

    
    </font>
</defs>
</svg>
